<?xml version="1.0" standalone="no"?>
<!DOCTYPE svg PUBLIC "-//W3C//DTD SVG 20010904//EN"
 "http://www.w3.org/TR/2001/REC-SVG-20010904/DTD/svg10.dtd">
<svg version="1.0" xmlns="http://www.w3.org/2000/svg"
 width="1922.000000pt" height="1920.000000pt" viewBox="0 0 1922.000000 1920.000000"
 preserveAspectRatio="xMidYMid meet">

<g transform="translate(0.000000,1920.000000) scale(0.100000,-0.100000)"
fill="#000000" stroke="none">
<path d="M0 9600 l0 -9600 9610 0 9610 0 0 9600 0 9600 -9610 0 -9610 0 0
-9600z m10870 6421 c0 -5 -9 -7 -20 -4 -11 3 -20 7 -20 9 0 2 9 4 20 4 11 0
20 -4 20 -9z m-2717 -56 c-3 -9 -8 -14 -10 -11 -3 3 -2 9 2 15 9 16 15 13 8
-4z m120 -82 c-7 -2 -19 -2 -25 0 -7 3 -2 5 12 5 14 0 19 -2 13 -5z m3237 -33
c0 -5 -7 -7 -15 -4 -8 4 -15 8 -15 10 0 2 7 4 15 4 8 0 15 -4 15 -10z m-3390
-232 c0 -12 -6 -9 -26 13 -19 22 -19 22 4 8 12 -8 22 -17 22 -21z m347 -154
c-3 -3 -12 -4 -19 -1 -8 3 -5 6 6 6 11 1 17 -2 13 -5z m2160 -110 c-3 -3 -12
-4 -19 -1 -8 3 -5 6 6 6 11 1 17 -2 13 -5z m-3680 -396 c-3 -8 -6 -5 -6 6 -1
11 2 17 5 13 3 -3 4 -12 1 -19z m116 -17 c-18 -17 -76 -51 -86 -51 -3 0 -7 9
-10 21 -4 16 -3 18 8 9 14 -12 39 -5 74 22 31 24 40 23 14 -1z m-1553 -371 c0
-5 -7 -10 -15 -10 -15 0 -23 -5 -58 -36 -7 -5 -21 -13 -31 -17 -38 -15 15 34
59 54 48 22 45 22 45 9z m-457 -47 c-7 -3 -13 -9 -13 -14 0 -6 5 -7 12 -3 7 5
8 3 4 -5 -5 -7 -1 -20 6 -29 8 -9 18 -24 22 -32 4 -8 0 -6 -9 5 -9 11 -25 31
-37 44 -20 23 -20 25 -3 38 10 7 21 10 24 7 3 -4 0 -9 -6 -11z m7812 -42 c8
-21 2 -21 -23 -1 -21 18 -22 19 -3 17 11 -1 23 -8 26 -16z m525 -94 c0 -10
-10 -12 -32 -8 -32 4 -32 5 -8 12 37 11 40 10 40 -4z m55 -7 c-17 -7 -17 -9
-2 -9 9 -1 18 -9 18 -18 1 -17 2 -17 6 0 2 9 9 17 15 17 5 0 7 -7 4 -16 -3 -8
-2 -13 2 -10 4 2 14 0 22 -6 13 -8 12 -9 -2 -5 -9 3 -24 -3 -35 -16 -14 -16
-14 -19 -1 -9 10 8 19 9 22 3 3 -5 0 -12 -6 -15 -7 -3 0 -4 16 -3 32 2 47 -17
21 -27 -9 -3 -14 -2 -11 3 7 11 -30 18 -81 17 -21 -1 -41 3 -44 7 -3 5 -9 2
-12 -7 -4 -9 -3 -16 2 -16 9 0 2 -58 -9 -65 -4 -3 -8 1 -7 8 1 43 -4 59 -18
53 -17 -6 -21 19 -5 29 6 3 10 1 10 -4 0 -24 19 -9 22 17 2 16 8 26 16 24 7
-1 12 3 11 10 -3 25 1 39 10 33 5 -3 12 -1 16 5 3 5 14 10 23 9 14 0 13 -2 -3
-9z m-77 -28 c2 -7 -3 -12 -10 -12 -8 0 -15 7 -15 15 0 18 19 15 25 -3z m230
-103 c3 -12 2 -12 -6 0 -6 8 -15 10 -22 6 -9 -5 -11 -4 -6 4 10 15 28 10 34
-10z m8 -47 c-2 -15 -8 -37 -15 -50 -11 -22 -11 -22 8 -10 12 7 21 18 21 25 0
7 5 13 11 13 7 0 8 -11 4 -30 -4 -18 -3 -30 4 -30 6 0 8 7 5 15 -8 20 6 19 22
-2 8 -11 13 -13 14 -5 0 6 5 12 10 12 7 0 7 -6 0 -20 -14 -26 -2 -26 21 2 26
29 24 7 -2 -26 -18 -23 -23 -25 -38 -14 -14 11 -14 11 -3 -4 11 -14 8 -23 -24
-65 -20 -26 -42 -61 -49 -76 l-11 -28 -35 28 c-63 51 -80 73 -74 94 5 16 2 19
-25 19 -34 0 -83 27 -74 41 3 5 -1 7 -8 4 -7 -3 -36 15 -63 40 -28 25 -43 44
-35 43 8 -2 23 -14 34 -26 13 -17 26 -22 43 -19 13 2 26 0 30 -6 3 -6 1 -7 -5
-3 -7 4 -12 3 -12 -2 0 -5 8 -12 18 -16 9 -3 23 -9 31 -12 9 -5 11 -3 6 6 -6
9 -4 11 4 6 7 -5 10 -15 7 -23 -4 -8 -1 -11 5 -8 6 4 8 14 5 22 -4 11 -1 13
14 8 11 -4 20 -2 20 4 0 6 -6 11 -14 11 -8 0 -17 7 -20 16 -6 17 7 12 37 -15
17 -14 21 -14 49 2 16 9 34 14 39 11 5 -3 9 -2 8 3 -1 4 3 21 9 36 7 16 12 35
12 43 0 8 4 14 9 14 5 0 8 -12 7 -28z m-7946 -12 c0 -5 -5 -10 -11 -10 -5 0
-7 5 -4 10 3 6 8 10 11 10 2 0 4 -4 4 -10z m118 -15 c-3 -3 -9 2 -12 12 -6 14
-5 15 5 6 7 -7 10 -15 7 -18z m7626 6 c15 -16 15 -19 2 -24 -10 -4 -13 -1 -9
9 3 7 0 14 -6 14 -6 0 -11 5 -11 10 0 14 5 13 24 -9z m-7850 -47 c15 4 26 2
26 -4 0 -10 -21 -14 -50 -10 -8 1 -26 13 -40 27 l-25 26 32 -23 c22 -16 39
-21 57 -16z m7786 15 c0 -14 -17 -10 -23 5 -4 10 -1 13 9 9 7 -3 14 -9 14 -14z
m-7725 1 c-3 -5 -11 -10 -16 -10 -6 0 -7 5 -4 10 3 6 11 10 16 10 6 0 7 -4 4
-10z m-275 -30 c6 -11 8 -20 6 -20 -3 0 -10 9 -16 20 -6 11 -8 20 -6 20 3 0
10 -9 16 -20z m390 16 c0 -2 -8 -10 -17 -17 -16 -13 -17 -12 -4 4 13 16 21 21
21 13z m-150 -40 c0 -11 -19 -15 -25 -6 -3 5 1 10 9 10 9 0 16 -2 16 -4z m80
-16 c-8 -5 -19 -10 -25 -10 -5 0 -3 5 5 10 8 5 20 10 25 10 6 0 3 -5 -5 -10z
m-46 -9 c4 -5 -3 -7 -14 -4 -23 6 -26 13 -6 13 8 0 17 -4 20 -9z m-45 -46 c0
-5 -4 -3 -9 5 -5 8 -9 22 -9 30 0 16 17 -16 18 -35z m-797 -112 c-6 -2 -9 -10
-6 -15 4 -7 2 -8 -5 -4 -6 4 -18 2 -27 -4 -11 -10 -12 -16 -2 -28 11 -13 10
-14 -2 -10 -8 2 -28 -9 -44 -25 -27 -26 -28 -30 -13 -39 14 -7 15 -13 6 -29
-8 -15 -7 -24 2 -35 10 -12 10 -17 0 -23 -9 -6 -8 -19 7 -57 20 -51 19 -74 -3
-74 -7 0 -19 -8 -26 -17 -12 -15 -12 -16 5 -10 10 4 24 3 31 -3 15 -12 30 14
18 32 -4 7 -1 8 7 3 10 -6 12 -3 7 11 -6 16 -5 17 6 4 7 -8 19 -21 27 -29 13
-11 12 -12 -7 -2 -19 10 -23 9 -23 -3 0 -8 3 -16 8 -19 4 -2 2 -3 -3 -2 -6 2
-16 -9 -23 -23 -9 -20 -9 -23 0 -14 15 15 38 16 38 1 0 -5 -6 -7 -12 -3 -9 5
-9 3 0 -7 11 -12 15 -11 28 5 14 19 14 19 14 -4 0 -13 11 -38 25 -56 17 -22
20 -32 10 -28 -10 4 -15 0 -15 -15 0 -16 6 -21 25 -21 14 0 25 -4 25 -9 0 -6
-12 -6 -32 0 -18 5 -34 9 -36 9 -2 0 0 5 4 12 5 7 2 9 -7 6 -20 -8 -48 9 -106
62 -60 56 -89 96 -108 150 -13 38 -13 46 5 97 23 66 97 166 117 159 8 -3 11
-2 8 4 -6 9 62 61 80 59 5 0 4 -3 -3 -6z m239 -70 c13 -16 12 -17 -3 -4 -10 7
-18 15 -18 17 0 8 8 3 21 -13z m-6 -23 c3 -5 1 -10 -4 -10 -6 0 -11 5 -11 10
0 6 2 10 4 10 3 0 8 -4 11 -10z m-285 -6 c0 -8 -19 -13 -24 -6 -3 5 1 9 9 9 8
0 15 -2 15 -3z m105 -4 c3 -6 -1 -7 -9 -4 -18 7 -21 14 -7 14 6 0 13 -4 16
-10z m250 -30 c8 -13 -14 -42 -26 -34 -5 3 -9 10 -9 15 0 6 5 7 12 3 7 -4 8
-3 4 5 -4 6 -11 9 -16 6 -5 -3 -8 3 -7 14 1 15 5 17 19 10 9 -5 20 -14 23 -19z
m-195 0 c0 -5 -2 -10 -4 -10 -3 0 -8 5 -11 10 -3 6 -1 10 4 10 6 0 11 -4 11
-10z m31 -8 c-7 -2 2 -17 25 -37 20 -18 43 -31 50 -28 17 6 8 23 -12 23 -8 0
-14 7 -14 15 0 19 2 19 30 -5 15 -13 28 -17 39 -11 9 5 22 6 28 4 7 -3 16 2
19 11 9 23 18 20 31 -11 21 -50 24 -72 17 -107 -9 -50 -59 -127 -78 -120 -9 3
-12 12 -9 22 5 11 2 14 -10 9 -9 -3 -17 -2 -17 3 0 6 8 11 18 11 16 1 16 2 0
6 -19 5 -24 19 -8 25 6 2 6 8 0 18 -8 13 -10 12 -10 -3 0 -10 -4 -16 -9 -13
-5 3 -7 15 -4 26 6 24 -27 79 -72 119 -22 19 -33 36 -29 46 3 8 11 12 17 8 8
-5 7 -8 -2 -11z m124 -31 c-11 -10 -35 11 -35 30 0 21 0 21 19 -2 11 -13 18
-26 16 -28z m8939 -40 c-10 -10 -21 -17 -23 -15 -6 6 20 34 32 34 6 0 2 -8 -9
-19z m586 -55 c0 -12 -5 -7 -19 24 -11 24 -11 24 3 6 9 -11 16 -24 16 -30z
m-9707 -150 c25 -8 34 -15 24 -19 -8 -3 -27 3 -43 14 -34 22 -32 23 19 5z
m197 -2 c0 -6 -9 -15 -48 -48 -19 -17 -22 -17 -22 -3 0 10 6 16 13 15 6 -2 11
3 9 10 -1 8 2 11 8 7 5 -3 10 1 10 9 0 9 7 16 15 16 8 0 15 -3 15 -6z m-225
-34 c-3 -5 -10 -10 -16 -10 -5 0 -9 5 -9 10 0 6 7 10 16 10 8 0 12 -4 9 -10z
m35 -24 c0 -3 -4 -8 -10 -11 -5 -3 -10 -1 -10 4 0 6 5 11 10 11 6 0 10 -2 10
-4z m75 -45 c-3 -6 -11 -11 -17 -11 -6 0 -6 6 2 15 14 17 26 13 15 -4z m-58
-16 c0 -8 -4 -12 -9 -9 -5 3 -6 10 -3 15 9 13 12 11 12 -6z m10284 -111 c10
-12 8 -18 -7 -28 -10 -8 -21 -12 -24 -10 -2 3 2 9 9 13 10 7 8 13 -9 29 -22
20 -22 21 -2 15 12 -3 27 -12 33 -19z m-56 -63 c-3 -6 -11 -11 -16 -11 -5 0
-4 6 3 14 14 16 24 13 13 -3z m-10950 -31 c3 -5 1 -10 -4 -10 -6 0 -11 5 -11
10 0 6 2 10 4 10 3 0 8 -4 11 -10z m10862 -30 c-14 -11 -28 -20 -32 -20 -10 0
38 39 49 40 5 0 -3 -9 -17 -20z m-10756 -47 c13 -16 12 -17 -3 -4 -10 7 -18
15 -18 17 0 8 8 3 21 -13z m119 -83 c0 -5 -5 -10 -11 -10 -5 0 -7 5 -4 10 3 6
8 10 11 10 2 0 4 -4 4 -10z m158 -108 c5 -16 -23 -15 -37 1 -8 11 -6 13 11 12
12 -1 24 -7 26 -13z m10532 -63 c16 -6 3 -7 -38 -3 -35 3 -73 9 -85 14 -27 12
85 1 123 -11z m67 -15 c-3 -3 -12 -4 -19 -1 -8 3 -5 6 6 6 11 1 17 -2 13 -5z
m-11312 -53 c-7 -22 -27 -30 -22 -9 2 15 21 37 25 33 2 -2 1 -13 -3 -24z
m-195 -15 c0 -2 -7 -9 -15 -16 -13 -11 -14 -10 -9 4 5 14 24 23 24 12z m5948
-25 c15 -10 68 -40 117 -66 50 -26 95 -51 100 -55 18 -14 267 -137 385 -190
284 -128 688 -272 1198 -427 l93 -28 -6 -80 c-2 -44 -7 -201 -10 -350 -6 -277
-30 -652 -45 -702 -8 -26 -8 -25 -9 15 -1 30 -5 42 -16 42 -12 0 -15 -14 -15
-62 -1 -35 -9 -108 -19 -163 -10 -55 -17 -102 -14 -105 3 -3 14 6 25 20 40 51
297 318 398 414 58 55 143 139 188 186 79 80 83 83 67 45 -56 -133 -181 -506
-201 -599 -8 -38 -18 -74 -23 -80 -5 -6 -12 -27 -16 -46 -4 -19 -17 -44 -29
-55 l-21 -20 27 -3 c15 -2 114 19 220 47 107 28 261 64 343 80 83 17 213 46
289 65 77 20 142 33 145 30 9 -8 -57 -64 -75 -64 -9 0 -12 -5 -8 -12 5 -7 2
-9 -9 -5 -12 4 -14 2 -10 -11 6 -15 5 -16 -12 -2 -10 8 -16 10 -12 4 4 -7 0
-17 -8 -24 -12 -10 -15 -10 -15 0 0 14 -14 4 -16 -11 -1 -5 -2 -14 -3 -19 0
-6 -11 -19 -23 -29 -13 -10 -56 -47 -96 -81 -40 -34 -76 -59 -79 -56 -7 7 87
96 102 96 6 0 31 20 55 45 24 25 40 45 36 45 -29 0 -356 -293 -356 -319 0 -7
-4 -10 -9 -6 -5 3 -12 1 -15 -4 -4 -5 -1 -13 4 -16 7 -5 5 -12 -7 -20 -10 -7
-22 -11 -26 -8 -14 9 -56 -38 -50 -55 5 -11 2 -14 -9 -10 -18 7 -446 -416
-430 -426 16 -10 2 -44 -27 -63 -14 -9 -29 -16 -33 -15 -5 1 -8 -2 -8 -8 0 -5
-20 -31 -45 -56 -24 -26 -42 -51 -39 -55 3 -5 0 -9 -6 -9 -6 0 -10 -6 -9 -12
2 -7 -64 -78 -147 -158 -164 -160 -230 -220 -222 -205 3 6 37 76 76 158 39 81
76 147 82 147 6 0 9 4 6 9 -6 8 79 219 95 236 5 5 9 18 9 28 0 28 104 239 128
261 21 18 21 18 18 -10 -2 -16 -4 -32 -5 -36 0 -5 -6 -7 -13 -5 -6 1 -18 -11
-26 -28 -8 -16 -20 -33 -26 -37 -6 -4 -7 -10 -2 -15 4 -4 12 0 17 10 6 9 14
15 19 12 4 -3 10 2 14 10 3 8 1 15 -4 15 -5 0 -7 7 -3 16 4 10 8 12 12 5 4 -6
27 29 50 78 27 54 41 93 36 101 -5 8 -4 11 2 7 6 -4 13 0 17 8 8 21 -2 20
-123 -25 -157 -58 -334 -147 -327 -165 3 -9 -19 -30 -67 -61 -40 -26 -86 -56
-104 -68 -54 -35 -28 -30 59 12 154 74 200 93 204 89 3 -2 -19 -17 -48 -32
-45 -23 -226 -130 -340 -199 -31 -20 -32 -20 -24 0 142 348 226 794 256 1350
8 160 30 692 30 746 0 18 -12 23 -250 88 -193 54 -646 213 -815 288 -180 79
-348 159 -477 227 l-87 47 -73 -43 c-326 -190 -1016 -460 -1460 -570 -57 -13
-52 32 -38 -364 19 -518 56 -1023 90 -1210 22 -119 40 -201 60 -270 25 -87 25
-92 0 -70 -18 16 -17 13 5 -48 26 -73 45 -111 51 -104 2 2 -1 18 -7 36 -6 18
-9 34 -6 37 3 3 15 -25 27 -63 12 -37 26 -72 31 -77 5 -6 9 -21 9 -34 0 -24 0
-24 -38 9 -44 39 -62 54 -227 194 -190 160 -405 323 -405 307 0 -16 107 -338
126 -378 10 -21 28 -50 41 -63 13 -14 22 -34 21 -45 -2 -13 2 -20 10 -18 7 1
21 -19 32 -45 11 -27 38 -82 59 -123 21 -41 47 -97 57 -125 10 -27 27 -66 38
-85 l20 -35 -39 34 c-91 77 -275 262 -256 256 15 -5 21 -2 21 9 0 28 14 17 70
-55 30 -38 69 -86 86 -106 30 -35 31 -35 30 -12 -1 16 -33 58 -96 125 -94 100
-115 119 -104 89 10 -24 -12 -17 -29 9 -15 23 -15 24 6 19 21 -5 21 -5 5 12
-14 15 -20 16 -32 5 -10 -7 -16 -8 -16 -2 0 6 6 13 13 15 13 6 -121 143 -241
245 -69 59 -90 73 -77 53 3 -5 0 -13 -6 -16 -6 -4 -13 2 -16 14 -3 12 -12 21
-19 21 -8 0 -19 9 -26 20 -7 11 -18 20 -24 20 -7 0 -15 11 -18 25 -4 14 -13
25 -21 25 -9 0 -14 8 -12 18 2 17 -74 91 -283 276 -19 17 -76 67 -125 111 -83
74 -165 140 -165 133 0 -2 4 -18 9 -36 l10 -33 -52 41 c-29 23 -88 73 -132
113 -139 126 -162 155 -107 137 246 -80 562 -183 580 -191 13 -5 80 -27 150
-49 70 -22 160 -52 201 -65 l73 -25 -5 22 c-3 13 -19 75 -37 138 -18 63 -33
125 -34 137 0 12 -4 25 -8 29 -5 4 -8 21 -8 39 0 17 -4 35 -9 41 -9 10 -91
304 -91 328 0 10 373 -370 495 -504 166 -182 174 -185 135 -47 -11 41 -23 118
-27 172 -6 90 -8 100 -38 135 -31 37 -32 41 -39 172 -18 363 -25 550 -25 724
l-1 191 128 37 c162 46 554 176 567 187 5 5 16 9 26 9 14 0 40 9 144 50 11 4
93 38 182 74 89 36 164 66 168 66 11 0 435 214 570 289 71 39 134 71 138 71 5
0 21 -8 35 -19z m-5987 -30 c-8 -5 -11 -18 -7 -32 3 -13 3 -18 0 -11 -8 17
-22 15 -27 -5 -4 -15 -5 -15 -6 -2 -1 19 38 73 47 64 4 -3 0 -10 -7 -14z m130
-28 c-12 -20 -14 -14 -5 12 4 9 9 14 11 11 3 -2 0 -13 -6 -23z m229 -42 c-4
-16 -16 -41 -26 -56 -17 -26 -17 -27 2 -25 34 4 38 0 18 -16 -18 -14 -18 -15
4 -4 13 7 26 9 29 6 7 -7 -7 -27 -15 -22 -4 2 -8 -10 -9 -26 -1 -17 -4 -33 -7
-35 -2 -2 -22 7 -45 21 l-41 26 27 48 c14 26 29 49 32 52 4 3 12 17 18 33 16
35 24 35 13 -2z m-413 -23 c-3 -8 -6 -5 -6 6 -1 11 2 17 5 13 3 -3 4 -12 1
-19z m143 -2 c0 -3 -4 -8 -10 -11 -5 -3 -10 -1 -10 4 0 6 5 11 10 11 6 0 10
-2 10 -4z m-170 -71 c-7 -25 -15 -43 -18 -41 -3 3 1 26 8 51 7 25 15 43 18 41
3 -3 -1 -26 -8 -51z m132 15 c-6 -15 -11 -19 -16 -12 -4 7 -1 18 6 26 17 19
20 14 10 -14z m358 10 c-8 -5 -17 -7 -19 -4 -3 3 1 9 9 14 8 5 17 7 19 4 3 -3
-1 -9 -9 -14z m-503 -112 c-3 -7 -5 -2 -5 12 0 14 2 19 5 13 2 -7 2 -19 0 -25z
m6184 -374 c142 -74 157 -91 29 -32 -36 17 -84 39 -107 50 -24 11 -45 24 -49
29 -19 32 -24 -13 -23 -238 0 -137 4 -267 7 -291 7 -43 7 -43 27 -25 17 17 23
18 45 6 14 -7 33 -13 43 -13 10 0 16 -4 13 -9 -3 -5 22 -12 57 -16 58 -7 253
-62 245 -70 -2 -2 -35 5 -73 16 -131 37 -304 58 -375 46 -19 -3 -71 -11 -115
-17 -177 -26 -465 -151 -602 -262 -168 -136 -296 -329 -376 -568 -75 -224 -51
-544 59 -779 195 -417 608 -681 1069 -684 121 0 262 19 354 49 80 26 265 121
317 162 27 21 86 74 132 116 45 43 82 74 82 70 0 -5 -9 -17 -20 -29 -11 -11
-34 -37 -50 -59 -17 -21 -30 -36 -30 -32 0 3 -9 -2 -19 -11 -11 -9 -17 -21
-14 -26 3 -6 1 -7 -5 -3 -7 4 -12 1 -12 -8 0 -9 -5 -16 -11 -16 -5 0 -7 -5 -3
-11 4 -7 1 -10 -7 -7 -17 6 -38 -20 -39 -47 0 -11 -7 -29 -15 -39 -19 -25 -19
-63 0 -82 15 -15 19 -42 15 -96 -1 -16 3 -28 9 -28 6 0 11 4 11 10 0 19 28 -2
35 -27 3 -15 11 -23 19 -20 10 4 12 -1 8 -15 -4 -15 -2 -19 7 -13 10 6 11 3 2
-14 -25 -46 16 -19 93 61 43 46 72 74 65 63 -8 -11 -16 -22 -19 -25 -3 -3 -27
-35 -55 -72 -123 -167 -507 -509 -772 -688 -112 -75 -124 -81 -142 -69 -379
266 -592 450 -817 706 -214 242 -318 454 -413 838 -78 318 -118 739 -128 1355
l-6 375 54 14 c66 16 82 20 244 72 147 47 141 45 290 105 136 56 150 60 141
46 -3 -6 -30 -20 -59 -30 -28 -11 -77 -31 -107 -45 -58 -27 -203 -77 -221 -77
-6 0 -25 -7 -42 -15 -30 -13 -114 -38 -229 -68 l-48 -12 1 -80 0 -80 16 33 c9
17 20 32 24 32 9 0 33 -60 34 -85 0 -15 8 -21 33 -23 28 -3 32 0 32 20 1 22 1
22 12 4 8 -15 8 -21 0 -24 -16 -5 -15 -42 1 -42 6 0 29 -19 49 -42 l37 -43 1
45 1 45 37 -43 c36 -42 66 -54 74 -30 3 7 24 13 51 14 40 1 44 0 32 -13 -8 -8
-19 -11 -25 -8 -5 3 -10 -1 -10 -9 0 -12 5 -14 26 -6 40 15 94 12 101 -6 7
-20 63 -9 81 17 7 11 20 19 28 19 8 0 13 6 11 13 -1 6 6 11 16 9 18 -3 24 13
7 23 -11 7 -2 35 12 35 6 0 8 -7 4 -15 -6 -17 2 -19 24 -5 12 8 15 49 15 264
l0 255 55 24 c30 14 105 46 165 73 61 26 180 83 265 126 85 43 160 78 166 78
6 0 76 -34 155 -76z m6637 -34 l877 0 -3 -220 -4 -220 242 0 241 0 -2 -550 -1
-550 -221 7 c-209 5 -260 12 -229 32 7 4 97 9 200 10 103 1 189 4 191 7 9 9
12 192 5 390 -5 177 -8 200 -23 200 -9 0 -101 1 -206 2 l-190 2 0 201 c0 110
-3 206 -7 212 -5 8 -62 14 -167 17 -88 3 -163 8 -167 13 -4 4 0 7 9 7 10 0 14
5 11 15 -4 10 -20 15 -45 15 -21 0 -39 4 -39 9 0 15 -99 35 -217 45 -56 5 -61
9 -61 56 0 22 -3 44 -7 50 -8 13 -35 1 -35 -16 0 -10 -12 -14 -40 -14 -35 0
-40 3 -40 23 1 23 79 122 80 100 0 -9 18 -13 54 -13 34 0 57 5 60 13 5 10 7
10 12 0 8 -18 34 -16 34 1 0 8 5 18 12 22 7 4 8 3 4 -4 -5 -8 0 -12 12 -12 11
0 22 7 26 15 3 9 15 13 33 11 15 -2 20 -1 11 1 -23 6 -23 29 -1 37 10 4 74 11
143 16 69 5 134 10 145 11 11 1 -2 5 -30 9 -55 9 -1495 4 -1503 -5 -3 -3 26
-5 64 -5 38 0 121 -3 184 -6 63 -3 125 -6 138 -5 12 0 22 -4 22 -9 0 -6 19 -8
48 -5 26 3 52 6 57 6 6 1 30 -3 55 -9 28 -7 49 -7 54 -1 13 12 46 12 46 -1 0
-5 -11 -10 -25 -10 -14 0 -25 -4 -25 -10 0 -11 24 -13 58 -4 13 4 22 14 22 25
0 11 7 19 15 19 8 0 15 -6 15 -14 0 -13 43 -31 65 -28 6 1 3 -3 -6 -10 -14
-10 -12 -15 15 -43 18 -18 42 -36 54 -39 26 -9 25 -25 -4 -40 -10 -6 -21 -14
-24 -18 -6 -8 -20 -9 -102 -8 -52 1 -58 -1 -58 -19 0 -26 -28 -28 -45 -4 -11
15 -17 15 -40 5 -26 -12 -27 -13 -10 -38 9 -14 14 -29 10 -32 -3 -3 -38 -10
-78 -14 -142 -16 -162 -20 -173 -31 -4 -4 -30 -7 -58 -7 -37 0 -47 -3 -36 -10
8 -5 11 -10 5 -11 -5 -1 4 -5 20 -9 22 -6 4 -9 -62 -11 -155 -5 -176 -4 -180
7 -2 7 6 10 24 6 26 -5 27 -4 11 11 -17 17 -68 20 -68 4 0 -5 -7 -7 -15 -3 -9
3 -15 0 -15 -9 0 -8 -7 -15 -15 -15 -13 0 -15 32 -15 231 0 207 2 230 16 225
9 -3 410 -6 892 -6z m-12396 -224 l-3 -225 233 6 233 6 0 -694 0 -694 -219 -3
c-144 -1 -223 1 -231 8 -18 15 -29 -4 -15 -29 6 -12 10 -103 10 -231 l0 -212
-82 6 c-46 3 -99 6 -118 7 -19 1 6 5 56 9 49 3 94 9 100 12 5 4 7 67 4 155
l-5 148 -435 8 c-239 4 -526 6 -638 5 l-202 -3 0 26 0 26 196 8 c160 6 198 4
205 -7 5 -7 10 82 11 207 l3 220 208 0 208 0 0 255 c0 140 4 264 8 275 10 26
20 -148 22 -390 l2 -190 -209 -5 c-115 -3 -208 -8 -206 -12 1 -5 2 -89 2 -188
0 -153 2 -180 15 -180 8 0 15 -4 15 -10 0 -5 5 -10 11 -10 7 0 5 10 -5 25 -15
22 -15 26 -2 31 9 3 21 4 28 1 8 -4 6 -6 -4 -6 -10 -1 -18 -6 -18 -11 0 -14
49 -32 62 -24 6 4 8 3 5 -3 -4 -6 16 -11 51 -13 143 -7 242 -3 242 10 0 5 -7
7 -15 4 -19 -8 -45 13 -45 36 0 13 13 21 48 29 50 11 153 11 146 -1 -5 -7 1
-8 89 -9 41 0 60 -5 64 -15 3 -8 10 -14 15 -14 6 0 8 7 4 15 -7 20 32 20 68 1
25 -13 26 -15 10 -30 -9 -10 -24 -14 -32 -11 -9 3 -13 2 -8 -2 4 -4 21 -8 37
-8 24 0 29 4 25 18 -2 9 2 20 9 25 7 4 15 20 17 36 4 38 7 38 250 40 l198 1 0
226 c0 124 3 328 7 454 l6 227 -211 -7 c-176 -6 -212 -5 -212 6 -1 8 -1 102 0
209 0 107 -4 201 -8 208 -6 9 -72 13 -266 15 -173 1 -259 6 -264 13 -4 6 -19
14 -34 18 -16 3 -28 10 -28 14 0 5 -33 8 -72 7 -68 -2 -71 -1 -43 11 l30 13
-27 1 c-16 0 -28 5 -28 10 0 6 7 10 15 10 8 0 15 5 15 10 0 13 -13 13 -26 0
-14 -14 -234 -26 -242 -13 -4 5 -25 12 -47 16 -22 3 -34 3 -27 0 14 -6 16 -43
2 -43 -5 0 -10 4 -10 10 0 12 -32 50 -43 50 -4 0 -11 -10 -16 -22 -7 -20 -5
-24 18 -29 25 -6 24 -7 -6 -8 -30 -1 -33 2 -33 29 0 17 -2 30 -4 30 -2 0 -11
3 -20 6 -9 4 -25 -5 -41 -22 -24 -26 -25 -26 -25 -5 0 11 -4 21 -10 21 -5 0
-10 -5 -10 -11 0 -6 -9 -8 -20 -4 -11 4 -20 2 -20 -4 0 -6 -7 -11 -15 -11 -8
0 -15 -4 -15 -9 0 -5 -15 -5 -34 1 -22 7 -32 16 -29 24 3 10 -3 14 -21 14 -27
0 -36 -15 -13 -23 25 -9 -110 -57 -164 -57 l-34 -1 40 -19 40 -19 -85 -1 c-55
0 -91 -5 -99 -12 -8 -9 -48 -13 -124 -13 -322 -2 -357 -4 -358 -22 -1 -12 -4
-10 -9 7 -20 63 -33 60 226 60 l235 0 -3 215 -3 215 875 0 875 0 -3 -224z
m2963 -1 l-3 -226 32 5 c17 3 120 7 228 8 l197 3 4 -282 c2 -156 1 -283 -2
-282 -3 0 -60 59 -126 131 -66 72 -138 143 -159 159 -21 16 -34 29 -29 29 6 0
25 -11 44 -25 19 -14 42 -28 52 -31 9 -4 17 -11 17 -16 0 -5 36 -46 80 -91
l80 -82 0 223 0 222 -214 0 c-266 0 -246 -15 -246 189 0 144 -5 177 -14 88 -5
-49 -25 -100 -26 -64 0 9 -5 17 -11 17 -6 0 -8 9 -4 23 4 16 4 18 -3 8 -8 -12
-14 -12 -41 0 -17 8 -31 17 -31 20 0 4 -9 9 -20 12 -26 7 -26 27 0 27 14 0 18
5 13 17 -4 11 -3 14 5 9 8 -5 10 -2 6 8 -5 12 -10 13 -26 5 -31 -17 -30 -5 2
26 25 24 30 26 36 12 3 -10 11 -17 16 -17 6 0 5 6 -2 15 -10 12 -9 15 7 15 10
0 25 -6 32 -12 11 -10 14 -10 18 0 9 23 23 12 23 -18 0 -16 5 -30 10 -30 6 0
10 18 10 39 l0 39 -87 5 c-49 2 -423 4 -832 3 l-743 -1 -4 -198 c-1 -108 -6
-206 -9 -217 -6 -19 -16 -20 -240 -20 l-233 0 4 -517 c6 -659 10 -842 18 -850
5 -5 9 50 10 135 0 12 4 22 8 22 4 0 8 -7 8 -16 0 -14 3 -14 15 -4 13 10 15 9
15 -9 0 -19 5 -21 43 -20 23 1 79 1 123 -1 45 -1 88 1 95 6 19 12 79 15 79 4
0 -5 23 -6 50 -3 36 4 50 2 50 -6 0 -7 8 -10 18 -7 42 13 81 18 142 20 61 1
65 2 62 24 -4 28 21 39 59 25 16 -7 29 -7 29 -2 0 5 7 9 16 9 11 0 15 -6 11
-20 -4 -15 0 -20 13 -20 25 0 30 -19 30 -126 0 -52 4 -94 9 -94 5 0 10 250 13
560 2 307 7 563 12 567 4 4 11 2 15 -5 10 -17 24 -1067 16 -1164 -4 -40 -8
-86 -10 -103 -2 -16 -4 -34 -4 -38 -1 -5 -5 -5 -11 -2 -5 3 -8 39 -7 80 1 55
-2 76 -11 80 -8 3 -215 5 -461 5 -344 0 -450 -3 -460 -12 -29 -29 -32 25 -30
504 1 266 1 603 0 751 l-2 267 235 0 236 0 1 193 c1 105 0 204 -1 220 l-2 27
880 0 880 0 -3 -225z m7405 -850 c0 -591 -3 -1075 -8 -1075 -5 0 -9 6 -9 13
-4 50 -25 183 -31 187 -4 3 -202 4 -439 2 l-433 -2 0 -86 c0 -64 -3 -85 -12
-82 -19 7 -29 91 -23 178 4 59 9 805 6 883 -1 15 -10 17 -71 16 -39 -1 -73 0
-76 3 -7 7 145 20 156 13 15 -9 19 -94 24 -499 3 -226 9 -393 15 -399 9 -9 10
6 14 161 0 24 5 32 18 32 10 0 21 -9 24 -20 4 -14 16 -20 38 -21 18 -1 40 -2
50 -3 10 -1 21 -7 26 -14 6 -10 18 -11 56 -2 50 11 50 11 74 -29 12 -20 180
-19 192 0 5 8 28 14 56 15 117 3 120 3 99 19 -18 14 -17 15 25 15 25 0 49 -4
54 -9 6 -5 21 -11 35 -13 17 -2 26 -10 28 -25 2 -14 8 -20 18 -16 14 5 15 2
18 -61 1 -11 7 -21 14 -23 9 -4 12 34 12 169 1 1442 -1 1683 -10 1692 -13 13
-1218 22 -1231 9 -5 -5 -9 -90 -9 -191 -2 -211 -8 -247 -47 -255 -15 -3 -103
-4 -197 -3 l-171 1 -3 -204 c-2 -127 -7 -210 -14 -218 -7 -9 -38 -13 -92 -13
-44 0 -103 -3 -131 -6 l-50 -6 3 -164 c3 -143 1 -164 -12 -164 -14 0 -16 20
-16 148 0 81 -3 164 -6 185 l-7 37 147 0 146 0 0 211 c-1 116 2 214 5 218 4 3
95 8 203 9 l197 4 -3 229 -3 229 675 0 675 0 1 -1075z m2075 975 c3 -5 -3 -10
-15 -10 -12 0 -18 5 -15 10 3 6 10 10 15 10 5 0 12 -4 15 -10z m110 -20 c-3
-5 -25 -9 -48 -8 l-42 1 45 7 c25 4 46 8 48 8 2 1 0 -2 -3 -8z m75 -20 c0 -5
-13 -10 -30 -10 -16 0 -30 5 -30 10 0 6 14 10 30 10 17 0 30 -4 30 -10z m-240
-20 c0 -5 8 -11 18 -13 14 -4 14 -5 1 -6 -9 0 -24 8 -34 19 -17 18 -17 20 -2
14 9 -3 17 -10 17 -14z m80 -16 c0 -31 -22 -28 -27 4 -2 14 2 22 12 22 9 0 15
-10 15 -26z m80 -144 c0 -5 -4 -10 -10 -10 -5 0 -10 5 -10 10 0 6 5 10 10 10
6 0 10 -4 10 -10z m-14023 -86 c-3 -3 -12 -4 -19 -1 -8 3 -5 6 6 6 11 1 17 -2
13 -5z m721 -1 c-10 -2 -28 -2 -40 0 -13 2 -5 4 17 4 22 1 32 -1 23 -4z m6399
-25 c-3 -7 -5 -2 -5 12 0 14 2 19 5 13 2 -7 2 -19 0 -25z m6347 23 c3 -4 -6
-6 -19 -3 -14 2 -25 6 -25 8 0 8 39 4 44 -5z m-12616 -18 c-16 -2 -28 -9 -28
-14 0 -5 -7 -9 -15 -9 -9 0 -12 6 -9 15 4 10 18 14 43 14 30 -2 31 -3 9 -6z
m12552 -13 c0 -5 -7 -10 -16 -10 -8 0 -12 5 -9 10 3 6 10 10 16 10 5 0 9 -4 9
-10z m-13423 -6 c-3 -3 -12 -4 -19 -1 -8 3 -5 6 6 6 11 1 17 -2 13 -5z m12967
0 c14 -5 16 -35 16 -231 l0 -225 -22 6 c-13 3 -106 6 -208 6 l-185 0 2 201 c1
139 -2 198 -9 191 -10 -10 -16 -968 -6 -977 2 -2 92 -6 202 -9 109 -2 200 -7
204 -10 14 -15 -22 -19 -219 -22 -116 -3 -215 -7 -220 -10 -5 -3 -9 54 -9 128
0 73 -3 319 -7 546 l-6 412 226 0 c124 0 232 -3 241 -6z m81 -4 c-3 -5 -10
-10 -16 -10 -5 0 -9 5 -9 10 0 6 7 10 16 10 8 0 12 -4 9 -10z m468 3 c-7 -2
-19 -2 -25 0 -7 3 -2 5 12 5 14 0 19 -2 13 -5z m-14207 -211 c1 -70 3 -225 4
-344 l2 -218 37 0 c144 -2 806 1 808 4 2 2 6 86 9 187 3 101 8 195 10 209 5
24 6 24 20 6 11 -16 14 -65 14 -232 l0 -212 -470 -1 -470 -1 5 22 c5 24 13
325 14 571 1 75 4 137 9 137 4 0 8 -57 8 -128z m8284 62 c0 -2 -7 -4 -15 -4
-8 0 -15 4 -15 10 0 5 7 7 15 4 8 -4 15 -8 15 -10z m-259 -38 c169 -30 318
-103 492 -241 167 -133 321 -410 358 -645 29 -190 -17 -452 -112 -629 -64
-119 -114 -185 -218 -284 -327 -312 -783 -383 -1194 -184 -195 95 -331 215
-452 401 -87 135 -150 319 -161 476 -25 337 158 713 444 913 155 109 262 153
477 200 46 10 296 5 366 -7z m-6418 -123 c85 -5 97 -8 97 -25 0 -17 -17 -18
-389 -18 -214 0 -396 3 -405 6 -9 3 -16 12 -16 20 0 11 30 14 143 17 315 6
477 7 570 0z m3667 -222 c1 -30 -10 -3 -34 91 -14 53 -26 107 -25 120 0 22 58
-183 59 -211z m-683 212 c28 -4 31 -8 22 -24 -9 -18 -23 -19 -327 -14 -327 6
-382 10 -382 25 0 5 70 8 163 6 89 -2 196 0 237 4 88 9 241 10 287 3z m9801
-13 c66 0 101 4 97 10 -4 7 77 10 235 10 225 0 241 -1 238 -17 -4 -20 -41 -22
-498 -23 l-245 0 3 -302 c1 -167 4 -316 5 -331 l2 -28 353 -4 352 -4 0 318 c0
259 3 321 14 330 10 9 15 8 19 -3 3 -8 6 -163 7 -345 0 -318 0 -330 -19 -341
-13 -6 -154 -10 -400 -10 l-380 0 2 358 c1 196 6 364 10 373 6 11 20 15 47 14
27 -2 37 1 33 9 -3 6 0 5 8 -1 9 -9 48 -13 117 -13z m65 13 c-7 -2 -21 -2 -30
0 -10 3 -4 5 12 5 17 0 24 -2 18 -5z m-7473 -33 c-19 -13 -30 -13 -30 0 0 6
10 10 23 10 18 0 19 -2 7 -10z m4646 -161 c12 -20 -11 -28 -102 -35 -86 -6
-91 -5 -96 14 -6 20 -1 21 66 25 39 1 83 4 98 5 15 1 30 -3 34 -9z m-6337 -92
c0 -27 -2 -29 -9 -12 -12 28 -12 57 0 50 6 -3 10 -21 9 -38z m6155 7 c3 -9 6
-67 6 -130 l0 -114 -82 0 c-45 0 -79 2 -76 5 5 5 60 13 101 14 l27 1 0 120 c0
110 8 145 24 104z m-6798 -85 c6 -77 10 -92 25 -96 35 -9 19 -22 -18 -16 -21
3 -38 6 -38 7 -5 11 9 196 15 196 5 0 12 -41 16 -91z m679 -46 c8 -32 14 -65
14 -73 0 -17 -17 20 -23 53 -3 12 -8 38 -12 57 -11 57 6 27 21 -37z m-595 -73
c0 -5 -4 -10 -9 -10 -6 0 -13 5 -16 10 -3 6 1 10 9 10 9 0 16 -4 16 -10z
m6436 -21 c8 -14 -10 -11 -32 6 -18 13 -18 14 4 8 12 -3 25 -9 28 -14z m-89 5
c-3 -3 -12 -4 -19 -1 -8 3 -5 6 6 6 11 1 17 -2 13 -5z m-6222 -25 c14 -13 -14
-10 -55 6 l-35 14 40 -6 c22 -3 44 -9 50 -14z m518 -75 c13 -49 27 -98 32
-109 7 -18 6 -18 -7 -5 -9 8 -23 49 -32 90 -9 41 -19 86 -23 100 -3 14 -3 22
0 19 4 -3 17 -46 30 -95z m5167 76 c0 -5 -19 -10 -43 -10 -24 0 -47 -4 -52 -9
-6 -5 -31 -11 -57 -13 -47 -5 -68 4 -68 29 0 10 26 13 110 13 67 0 110 -4 110
-10z m684 -67 c4 -18 3 -34 -3 -38 -7 -4 -11 5 -11 22 -1 15 -7 39 -15 53 -20
36 -18 47 4 19 10 -13 21 -38 25 -56z m-304 52 c-63 -12 -101 -12 -44 0 16 4
34 8 39 10 6 2 24 3 40 3 17 0 1 -6 -35 -13z m-5829 -56 c177 -59 250 -88 184
-74 -16 4 -43 12 -60 20 -16 7 -57 20 -90 29 -95 25 -262 85 -239 85 11 1 103
-26 205 -60z m5216 9 c-2 -13 -4 -5 -4 17 -1 22 1 32 4 23 2 -10 2 -28 0 -40z
m508 16 c-6 -2 -59 -12 -120 -24 -60 -11 -151 -30 -200 -41 -130 -28 -155 -30
-155 -13 0 10 13 14 47 14 26 0 76 8 112 17 95 24 304 60 316 54 6 -3 6 -6 0
-7z m452 -81 c-3 -10 -5 -2 -5 17 0 19 2 27 5 18 2 -10 2 -26 0 -35z m-957 8
c0 -11 5 -23 10 -26 15 -9 2 -25 -15 -18 -17 6 -21 63 -5 63 6 0 10 -9 10 -19z
m935 -20 c3 -5 -3 -12 -13 -15 -16 -5 -20 -21 -26 -91 -3 -47 -3 -103 0 -125
4 -21 4 -58 0 -82 l-6 -43 -110 3 -110 3 0 -96 c0 -87 -2 -96 -17 -91 -10 3
-87 6 -170 7 -84 2 -153 5 -153 9 0 6 159 163 197 194 14 11 23 14 28 6 4 -6
1 -9 -7 -8 -7 2 -12 -3 -10 -9 1 -7 -5 -13 -14 -13 -15 0 -15 -2 1 -26 16 -25
16 -25 -3 -15 -14 7 -25 6 -41 -5 -19 -14 -21 -41 -1 -29 4 3 11 -1 13 -7 3
-7 6 0 6 16 1 28 1 29 21 11 11 -10 23 -15 27 -12 3 4 12 2 19 -3 19 -16 44
16 44 56 0 32 2 35 33 34 17 0 76 1 129 3 l98 2 0 152 c0 146 1 153 22 167 26
18 35 20 43 7z m-5901 -17 c23 -9 20 -23 -4 -17 -11 3 -20 9 -20 14 0 11 3 11
24 3z m5687 -125 c-34 -34 -61 -66 -61 -70 0 -5 -6 -9 -14 -9 -13 0 -31 -27
-28 -42 1 -5 -5 -8 -15 -8 -9 0 -14 -3 -10 -6 3 -4 -1 -13 -9 -21 -26 -26 -29
-4 -3 24 64 73 184 193 192 193 5 0 -18 -28 -52 -61z m2649 -86 c3 -139 6
-178 15 -192 4 -7 -4 -11 -19 -11 l-26 0 0 144 c0 79 3 151 6 160 15 38 22 8
24 -101z m1788 -56 c2 -156 1 -168 -18 -187 -11 -11 -20 -27 -20 -35 0 -13
-103 -15 -870 -15 -537 0 -870 4 -870 9 0 6 5 13 10 16 6 3 10 17 10 31 0 16
4 23 11 18 9 -5 10 1 5 19 -5 21 -3 25 9 21 8 -4 15 -14 16 -23 0 -10 2 -11 6
-3 2 6 12 12 21 13 11 0 12 2 5 6 -17 6 -17 23 0 23 22 0 67 -24 67 -36 0 -7
11 -15 25 -18 14 -4 25 -11 25 -17 0 -6 5 -7 11 -4 15 10 100 -5 94 -16 -4 -5
90 -9 240 -9 l247 0 -40 48 -41 48 30 -4 c17 -3 29 0 29 7 0 6 5 11 10 11 6 0
10 -7 10 -15 0 -9 6 -12 15 -9 10 4 13 14 9 29 -4 18 0 24 22 29 16 4 34 16
41 26 8 11 20 17 28 13 9 -3 22 0 30 7 9 8 15 9 15 2 0 -6 15 -12 33 -14 19
-2 31 -8 30 -15 -2 -7 7 -13 18 -13 17 0 19 3 10 14 -10 11 -4 15 29 18 22 2
40 0 40 -4 0 -5 15 -8 34 -8 19 0 36 -6 39 -13 6 -16 104 -32 190 -30 31 0 57
-3 57 -8 0 -6 8 -5 19 0 10 6 44 13 74 17 48 6 58 4 78 -15 20 -19 22 -23 9
-32 -11 -7 -6 -8 18 -4 24 5 32 3 32 -8 0 -7 7 -14 15 -14 9 0 14 6 11 14 -3
7 1 13 9 13 18 0 28 -17 16 -25 -6 -3 -8 -12 -5 -19 3 -9 -3 -17 -15 -21 -12
-3 -21 -11 -21 -16 0 -14 13 -10 38 10 20 18 22 28 22 123 0 140 10 240 24
235 7 -2 12 -60 14 -170z m-10505 -188 l59 -55 -189 2 c-118 2 -193 -2 -200
-8 -10 -8 -13 -6 -13 8 0 11 -2 103 -4 205 l-4 186 147 -141 c80 -78 172 -167
204 -197z m22 179 c47 -46 100 -95 118 -110 74 -62 89 -76 304 -280 28 -27 53
-48 57 -48 11 0 106 -100 106 -111 0 -12 -91 68 -224 195 -48 47 -123 115
-165 151 -85 74 -300 285 -289 285 4 0 45 -37 93 -82z m-1135 37 c0 -8 -4 -15
-10 -15 -5 0 -7 7 -4 15 4 8 8 15 10 15 2 0 4 -7 4 -15z m6834 -30 c-4 -8 -11
-15 -16 -15 -6 0 -5 6 2 15 7 8 14 15 16 15 2 0 1 -7 -2 -15z m1076 -29 c0 -3
-4 -8 -10 -11 -5 -3 -10 -1 -10 4 0 6 5 11 10 11 6 0 10 -2 10 -4z m77 -2 c-3
-3 -12 -4 -19 -1 -8 3 -5 6 6 6 11 1 17 -2 13 -5z m-1235 -56 c-29 -28 -54
-49 -57 -46 -6 6 90 98 102 98 4 0 -16 -23 -45 -52z m1823 42 c3 -5 1 -10 -4
-10 -6 0 -11 5 -11 10 0 6 2 10 4 10 3 0 8 -4 11 -10z m2498 3 c-7 -2 -19 -2
-25 0 -7 3 -2 5 12 5 14 0 19 -2 13 -5z m-4046 -53 c-1 -10 -5 -16 -9 -14 -5
3 -6 10 -3 15 4 5 1 9 -5 9 -6 0 -8 5 -5 10 9 15 24 2 22 -20z m3530 4 c-3 -3
-12 -4 -19 -1 -8 3 -5 6 6 6 11 1 17 -2 13 -5z m-13052 -24 c3 -5 1 -10 -4
-10 -6 0 -11 5 -11 10 0 6 2 10 4 10 3 0 8 -4 11 -10z m778 -15 c4 -8 2 -17
-3 -20 -6 -4 -10 3 -10 14 0 25 6 27 13 6z m12267 0 c11 -13 7 -15 -25 -15
-32 0 -36 2 -25 15 7 8 18 15 25 15 7 0 18 -7 25 -15z m-70 -5 c0 -5 -5 -10
-11 -10 -5 0 -7 5 -4 10 3 6 8 10 11 10 2 0 4 -4 4 -10z m-12826 -15 c3 -9 0
-15 -10 -15 -9 0 -12 5 -8 11 5 8 -1 10 -19 7 -15 -3 -24 -1 -21 3 9 15 51 10
58 -6z m8908 -52 c-6 -3 -10 -8 -8 -12 3 -4 -1 -8 -9 -8 -13 0 -12 4 2 19 9
10 19 15 22 12 3 -4 0 -9 -7 -11z m27 -40 c-51 -54 -93 -92 -98 -87 -5 4 118
124 127 124 3 0 -10 -16 -29 -37z m-147 -86 c-7 -8 -8 -18 -4 -22 4 -5 1 -5
-5 -1 -8 4 -13 1 -13 -7 0 -8 -14 -25 -31 -38 -17 -13 -37 -30 -45 -38 -8 -7
-17 -11 -20 -8 -3 3 23 35 57 71 35 36 65 64 67 61 3 -2 0 -11 -6 -18z m38
-21 c0 -2 -8 -10 -17 -17 -16 -13 -17 -12 -4 4 13 16 21 21 21 13z m-50 -55
c0 -5 -7 -12 -16 -15 -14 -5 -15 -4 -4 9 14 17 20 19 20 6z m-40 -34 c0 -2
-19 -21 -42 -42 l-43 -40 40 43 c36 39 45 47 45 39z m2699 -39 c-1 -24 -3 -34
-6 -23 -13 54 -21 28 -18 -56 2 -59 1 -87 -5 -74 -5 11 -9 49 -9 85 l-1 65
-166 -3 c-174 -4 -197 -1 -189 20 4 11 49 14 192 16 103 2 189 5 192 8 9 9 11
3 10 -38z m-1826 25 c-7 -2 -19 -2 -25 0 -7 3 -2 5 12 5 14 0 19 -2 13 -5z
m155 0 c-27 -2 -69 -2 -95 0 -27 2 -5 3 47 3 52 0 74 -1 48 -3z m-5987 -30
c13 -16 12 -17 -3 -4 -10 7 -18 15 -18 17 0 8 8 3 21 -13z m678 -76 c17 -43
31 -83 30 -90 0 -7 -3 -6 -6 3 -3 8 -16 36 -28 61 -21 43 -44 120 -32 109 3
-3 19 -40 36 -83z m85 57 c3 -8 2 -12 -4 -9 -6 3 -10 10 -10 16 0 14 7 11 14
-7z m-710 -30 c3 -8 2 -12 -4 -9 -6 3 -10 10 -10 16 0 14 7 11 14 -7z m41 -34
c3 -5 1 -10 -4 -10 -6 0 -11 5 -11 10 0 6 2 10 4 10 3 0 8 -4 11 -10z m229
-16 c5 -14 4 -15 -9 -4 -17 14 -19 20 -6 20 5 0 12 -7 15 -16z m9968 5 c3 -8
52 -11 151 -11 141 0 197 -10 119 -21 -59 -9 -286 -7 -300 2 -17 10 -17 21 0
32 18 12 26 11 30 -2z m106 4 c-10 -2 -28 -2 -40 0 -13 2 -5 4 17 4 22 1 32
-1 23 -4z m145 0 c-13 -2 -33 -2 -45 0 -13 2 -3 4 22 4 25 0 35 -2 23 -4z
m-2568 -23 c16 -7 14 -9 -15 -9 -19 0 -42 4 -50 9 -11 7 -8 10 15 9 17 0 39
-4 50 -9z m-7614 -27 c13 -16 12 -17 -3 -4 -10 7 -18 15 -18 17 0 8 8 3 21
-13z m3759 -210 c-102 -222 -150 -311 -249 -460 -109 -165 -219 -300 -378
-463 -225 -232 -411 -383 -787 -640 l-208 -142 -27 25 c-14 13 -105 77 -201
142 -96 65 -218 149 -270 188 -312 231 -591 509 -785 782 -69 96 -155 247
-148 258 6 10 23 -11 23 -31 0 -7 8 -25 18 -40 11 -15 32 -47 48 -72 29 -46
101 -146 119 -166 6 -7 18 -22 28 -34 18 -21 19 -21 39 -3 12 10 18 12 13 4
-6 -10 -4 -12 4 -7 7 5 9 17 5 29 -5 20 -5 20 7 6 8 -9 29 -21 47 -27 27 -9
32 -8 32 4 0 8 5 12 10 9 6 -3 10 1 10 9 0 9 7 16 15 16 8 0 15 4 15 9 0 5 9
7 20 4 17 -5 25 -20 22 -44 -1 -4 7 -5 17 -2 11 3 21 -2 24 -11 4 -9 11 -16
17 -16 10 0 1 12 -53 73 -15 18 -63 84 -107 148 -70 103 -114 150 -215 232
-131 106 -161 131 -168 144 -8 12 -6 13 13 3 11 -6 24 -18 27 -26 3 -8 10 -14
15 -14 6 0 16 -6 22 -13 6 -8 55 -49 108 -91 124 -99 144 -119 236 -246 162
-225 467 -495 866 -769 l148 -102 104 66 c125 80 357 251 479 353 246 206 496
484 649 724 38 60 133 140 306 259 48 32 104 74 126 93 21 19 40 30 42 25 2
-5 -33 -89 -78 -186z m-3646 103 c27 -25 47 -48 45 -51 -3 -2 -36 28 -75 68
-70 72 -60 67 30 -17z m2996 80 c0 -2 -8 -10 -17 -17 -16 -13 -17 -12 -4 4 13
16 21 21 21 13z m1215 -6 c3 -5 1 -10 -4 -10 -6 0 -11 5 -11 10 0 6 2 10 4 10
3 0 8 -4 11 -10z m-4475 -25 c11 -13 10 -14 -4 -9 -9 3 -16 10 -16 15 0 13 6
11 20 -6z m340 -56 c0 -6 -4 -7 -10 -4 -5 3 -10 11 -10 16 0 6 5 7 10 4 6 -3
10 -11 10 -16z m45 -109 c10 -11 16 -20 13 -20 -3 0 -13 9 -23 20 -10 11 -16
20 -13 20 3 0 13 -9 23 -20z m9078 -97 c-3 -54 -7 -100 -9 -102 -2 -2 -4 44
-4 103 0 59 4 105 9 102 4 -3 6 -50 4 -103z m-6022 60 c-12 -20 -14 -14 -5 12
4 9 9 14 11 11 3 -2 0 -13 -6 -23z m-42 -73 c-12 -22 -24 -38 -26 -36 -4 4 37
76 44 76 2 0 -6 -18 -18 -40z m-2619 -16 c11 -26 20 -49 20 -53 -1 -8 -49 81
-50 92 -1 18 11 3 30 -39z m60 -132 c0 -15 -2 -15 -10 -2 -13 20 -13 33 0 25
6 -3 10 -14 10 -23z m2275 -131 c3 -5 2 -12 -3 -15 -5 -3 -9 1 -9 9 0 17 3 19
12 6z m-2649 -508 c-41 -49 -110 -125 -154 -171 -44 -46 -95 -102 -113 -125
-87 -110 -193 -227 -205 -227 -17 0 -14 11 -21 -87 -3 -56 -1 -83 6 -83 6 0
12 19 13 43 1 23 5 -7 8 -68 4 -60 5 -149 2 -197 l-5 -88 -112 0 c-61 0 -187
-3 -278 -7 l-166 -6 6 144 c3 79 9 148 14 153 5 6 9 14 9 18 0 4 -153 8 -340
8 -333 0 -340 0 -340 -20 0 -11 5 -19 12 -18 8 2 15 -16 19 -47 4 -27 8 -393
8 -812 l1 -763 315 0 315 0 0 89 0 89 64 7 c63 7 484 1 490 -6 1 -2 -1 -47 -4
-99 -6 -86 -7 -89 -10 -35 -7 144 -20 -158 -14 -345 l6 -195 -729 3 c-400 1
-745 2 -766 2 l-39 0 3 157 4 156 -155 3 c-85 2 -163 4 -172 4 -17 0 -18 50
-18 915 l0 915 113 2 c61 1 129 2 149 2 l37 -1 3 106 3 106 113 9 112 9 0 111
c0 61 5 118 10 126 8 12 95 15 637 15 l628 0 -1 -32 c-1 -22 2 -31 10 -26 6 4
36 23 66 43 30 21 89 55 130 77 41 22 149 84 240 136 91 53 166 97 168 97 1 0
-31 -39 -72 -87z m59 -85 c-25 -40 -53 -83 -61 -95 l-16 -23 261 0 261 0 0
-1309 c0 -720 2 -1315 5 -1323 4 -11 -55 -13 -330 -15 l-335 -1 -1 396 c-1
218 0 795 1 1281 2 940 3 951 49 951 18 0 91 72 164 163 21 26 40 47 42 47 3
0 -16 -33 -40 -72z m5043 -582 c-2 -262 1 -476 5 -476 5 0 53 41 108 90 l99
90 362 -2 363 -3 3 -92 c3 -100 2 -99 67 -102 16 -1 33 -5 39 -11 16 -16 -17
-80 -110 -210 -50 -69 -128 -180 -175 -248 -46 -68 -114 -167 -151 -220 -37
-53 -67 -102 -68 -108 0 -6 -12 -21 -26 -35 -14 -13 -34 -38 -45 -56 -12 -18
-24 -33 -27 -33 -10 0 -12 536 -3 585 4 23 12 39 19 37 7 -1 12 7 12 18 0 19
-7 20 -255 20 -279 0 -276 1 -237 -57 16 -25 17 -79 20 -700 l3 -673 -335 0
-336 0 0 1038 c0 570 -3 1168 -7 1327 l-6 290 342 3 342 4 -3 -476z m-2880
-403 l3 -102 112 -3 112 -3 3 -837 2 -838 -321 0 -322 0 5 109 c2 61 2 108 -1
106 -42 -25 -246 -161 -279 -184 l-42 -31 -271 0 -271 0 7 90 7 89 -122 3
-122 3 2 395 c0 217 2 395 3 396 1 1 59 4 130 6 l127 3 0 106 0 106 410 -5
410 -5 -11 33 c-11 32 -8 179 5 210 6 13 -43 15 -409 12 l-415 -4 0 219 c0
121 3 222 6 226 3 3 283 5 622 4 l617 -2 3 -102z m2011 -183 l-2 -290 -263 0
c-190 0 -265 3 -270 12 -4 6 -6 38 -5 70 2 50 0 58 -16 59 -36 2 -378 -3 -381
-5 -1 -2 4 -16 13 -32 11 -21 15 -62 15 -156 l0 -127 319 2 c176 1 323 -2 327
-6 5 -4 8 -52 9 -105 l0 -97 110 -6 c61 -4 118 -7 128 -8 16 -1 17 -23 17
-315 0 -291 -1 -315 -17 -318 -10 -2 -68 -2 -129 0 -61 3 -113 1 -116 -4 -2
-5 -2 -65 1 -134 4 -69 3 -128 -2 -131 -4 -3 -301 -4 -660 -2 l-652 3 0 257 0
258 195 3 c107 2 237 0 288 -3 l92 -7 0 -64 0 -64 170 0 170 0 0 165 0 165
-277 0 c-153 0 -295 -4 -315 -9 l-38 -9 0 95 c0 52 5 104 11 115 18 33 -3 38
-158 38 l-143 0 0 354 0 354 108 7 c59 3 114 7 122 8 11 2 15 15 16 47 0 25 1
73 2 108 l2 62 665 0 665 0 -1 -290z m2190 238 c-60 -193 -120 -402 -126 -440
-3 -16 -1 -28 3 -28 5 0 70 16 144 36 74 19 248 64 385 99 138 35 269 70 292
78 l42 14 -22 -26 c-12 -14 -53 -55 -92 -90 -38 -36 -98 -91 -131 -123 -34
-32 -67 -58 -74 -58 -6 0 -8 -4 -5 -10 3 -5 0 -7 -9 -4 -12 4 -8 12 16 36 16
16 27 32 24 36 -4 3 -28 -16 -54 -42 -39 -40 -43 -47 -22 -41 22 7 23 6 11 -9
-7 -9 -19 -16 -25 -15 -24 3 -37 -2 -31 -11 3 -5 1 -10 -5 -10 -6 0 -9 -4 -5
-9 3 -6 -4 -8 -15 -6 -11 2 -20 -1 -20 -8 0 -7 -10 -17 -22 -22 -13 -6 -22
-16 -20 -23 1 -7 -5 -12 -13 -12 -18 0 -56 -40 -49 -52 3 -5 0 -7 -8 -6 -7 2
-12 -3 -10 -9 1 -7 -2 -14 -8 -14 -5 -1 -16 -2 -22 -3 -7 -1 -12 -12 -11 -24
2 -13 -1 -21 -7 -17 -6 3 -10 0 -10 -7 0 -9 -3 -9 -10 2 -10 15 -11 13 -14
-25 -1 -15 -7 -19 -26 -17 -16 1 -20 -1 -13 -6 10 -7 10 -12 0 -27 -11 -14
-16 -15 -22 -5 -6 9 -4 11 5 5 9 -5 11 -4 6 4 -6 9 -11 9 -22 0 -10 -8 -11
-15 -4 -24 13 -15 1 -28 -15 -15 -16 13 -490 -464 -482 -484 7 -18 -16 -45
-66 -79 -21 -14 -59 -49 -84 -79 -75 -86 -156 -168 -188 -191 l-30 -22 23 32
c12 17 22 34 22 37 0 3 16 30 35 60 19 30 35 58 35 62 0 5 17 37 39 73 21 36
69 122 105 191 37 69 73 130 79 135 7 6 19 29 27 53 18 56 35 67 27 19 -3 -21
-4 -37 -2 -37 7 0 45 77 45 90 0 6 8 23 18 38 36 53 83 135 79 138 -2 2 -55
-15 -118 -37 -167 -61 -250 -89 -265 -89 -28 0 -18 21 46 97 5 7 10 17 10 23
0 6 6 8 13 4 8 -5 8 -2 -2 9 -7 9 -11 18 -7 18 3 1 11 3 16 4 6 1 14 3 19 4
12 1 26 41 22 64 -1 10 3 25 10 33 7 8 9 27 5 46 -6 29 -5 30 7 14 11 -14 16
-16 22 -6 6 10 10 9 17 -1 7 -10 8 -8 3 6 -17 51 -16 71 2 86 17 13 17 13 4
-4 -17 -22 -7 -34 14 -17 16 14 21 55 5 45 -5 -3 -10 -1 -10 4 0 14 37 51 50
51 5 0 7 7 4 15 -8 19 10 19 26 0 10 -12 17 -7 47 36 34 50 40 74 10 45 -8 -8
-18 -12 -22 -8 -4 4 -4 -3 -1 -15 4 -13 2 -24 -5 -29 -9 -5 -10 -2 -6 10 5 14
3 17 -8 12 -8 -3 -15 -4 -15 -2 0 8 39 47 47 47 4 -1 8 5 8 12 1 17 14 37 26
37 6 0 8 -4 5 -8 -3 -5 1 -9 9 -9 8 0 15 4 15 9 0 4 -4 8 -9 8 -5 0 -8 11 -8
24 0 23 1 24 21 11 21 -14 24 -12 57 33 20 26 52 72 71 103 31 48 193 239 203
239 2 0 -1 -15 -6 -32z m-423 -515 c-7 -7 -26 7 -26 19 0 6 6 6 15 -2 9 -7 13
-15 11 -17z m724 -166 c0 -2 -10 -12 -22 -23 l-23 -19 19 23 c18 21 26 27 26
19z m-70 -70 c0 -1 -64 -65 -142 -142 l-143 -140 140 143 c130 132 145 147
145 139z m-820 -317 c0 -5 -8 -10 -18 -10 -10 0 -22 -4 -27 -8 -16 -15 -95
-42 -95 -34 0 15 24 32 45 32 12 0 25 4 31 9 8 8 31 16 57 20 4 0 7 -3 7 -9z
m414 -51 c-15 -16 -24 -29 -18 -29 5 0 -2 -6 -16 -13 -14 -7 -25 -19 -25 -27
0 -9 -8 -14 -19 -12 -11 2 -15 -1 -11 -7 3 -6 -1 -11 -9 -11 -12 0 -11 7 7 34
12 18 25 32 30 29 4 -2 7 3 7 12 0 9 5 13 10 10 6 -3 10 -1 10 4 0 6 7 11 16
11 8 0 12 5 9 10 -3 6 1 10 10 10 10 0 13 5 9 12 -5 7 -3 8 5 3 9 -5 5 -15
-15 -36z m-668 -25 c4 -23 2 -33 -10 -37 -13 -5 -16 2 -16 40 0 52 15 49 26
-3z m80 1 c-11 -8 -24 -15 -30 -15 -5 0 -1 7 10 15 10 8 24 14 29 14 6 0 1 -6
-9 -14z m143 -32 c-8 -10 -23 -34 -33 -53 -11 -19 -71 -116 -134 -215 -63 -99
-137 -216 -165 -260 -64 -101 -85 -125 -62 -70 73 174 140 372 152 452 4 27
16 38 72 71 75 45 162 90 175 91 5 1 3 -7 -5 -16z m-10032 -139 c26 -29 37
-60 23 -69 -4 -3 -7 3 -6 12 2 9 -8 28 -22 42 -19 19 -26 21 -33 10 -10 -16
-12 -8 -3 15 8 21 13 20 41 -10z m18 16 c3 -5 1 -10 -4 -10 -6 0 -11 5 -11 10
0 6 2 10 4 10 3 0 8 -4 11 -10z m-90 -90 c6 -34 6 -34 -8 -10 -7 14 -16 36
-20 49 -5 21 -4 22 8 10 7 -8 16 -30 20 -49z m585 50 c0 -5 -4 -10 -9 -10 -6
0 -13 5 -16 10 -3 6 1 10 9 10 9 0 16 -4 16 -10z m-553 -6 c-3 -3 -12 -4 -19
-1 -8 3 -5 6 6 6 11 1 17 -2 13 -5z m38 -24 c3 -5 1 -10 -4 -10 -6 0 -11 5
-11 10 0 6 2 10 4 10 3 0 8 -4 11 -10z m285 -10 c-8 -5 -19 -10 -25 -10 -5 0
-3 5 5 10 8 5 20 10 25 10 6 0 3 -5 -5 -10z m44 -59 c-7 -7 -34 21 -34 36 0
10 6 8 19 -8 11 -13 18 -26 15 -28z m10030 -185 l1 -216 -232 0 c-128 0 -244
-4 -260 -10 -22 -8 -17 0 26 38 90 78 352 314 405 364 28 26 52 46 54 43 2 -2
5 -101 6 -219z m-9716 169 c-1 -10 -13 -24 -25 -33 -21 -13 -23 -13 -23 2 0
10 5 14 10 11 14 -9 12 18 -2 35 -11 12 -10 12 5 1 16 -13 22 -8 17 14 -1 6 4
5 10 -1 7 -7 10 -20 8 -29z m-688 15 c0 -5 -2 -10 -4 -10 -3 0 -8 5 -11 10 -3
6 -1 10 4 10 6 0 11 -4 11 -10z m320 -54 c0 -5 -9 3 -20 17 -11 14 -20 29 -20
34 1 10 39 -39 40 -51z m100 -8 c0 -15 -18 -8 -24 10 -3 9 -9 24 -12 32 -3 8
4 4 15 -10 11 -14 21 -28 21 -32z m140 31 c0 -6 -4 -7 -10 -4 -5 3 -10 11 -10
16 0 6 5 7 10 4 6 -3 10 -11 10 -16z m-531 -33 c-3 -3 -11 5 -18 17 -13 21
-12 21 5 5 10 -10 16 -20 13 -22z m591 4 c0 -5 -7 -10 -15 -10 -8 0 -18 0 -22
-1 -4 0 -9 4 -11 10 -2 6 8 11 22 11 14 0 26 -4 26 -10z m-280 -20 c0 -5 -6
-10 -14 -10 -8 0 -16 -4 -18 -8 -4 -11 -73 -52 -87 -52 -23 0 -10 19 17 24 15
4 41 18 57 31 33 26 45 31 45 15z m11350 -125 c34 -195 27 -177 61 -160 21 11
66 16 153 18 117 2 156 -5 129 -21 -7 -5 -9 -13 -4 -21 6 -9 10 -6 15 13 5 20
12 26 34 26 l27 -1 -27 -14 c-15 -8 -29 -24 -33 -34 -3 -11 -12 -24 -20 -31
-11 -9 -12 -7 -8 9 3 12 0 27 -6 34 -6 8 -8 17 -4 20 3 4 -16 6 -43 6 -45 -2
-46 -2 -14 -8 23 -4 31 -9 23 -14 -7 -5 -17 -5 -23 -2 -5 3 -10 1 -10 -4 0 -6
-12 -11 -26 -11 -18 0 -25 4 -21 14 4 10 -4 15 -24 18 l-30 5 31 -28 c35 -33
37 -39 10 -39 -11 0 -20 7 -20 15 0 8 -4 15 -9 15 -5 0 -13 9 -16 20 -3 11
-13 20 -22 20 -15 0 -15 -2 0 -18 21 -23 16 -52 -13 -67 -24 -13 -13 -29 13
-19 8 3 18 1 22 -5 5 -9 -55 -16 -122 -14 -17 1 2 -34 27 -50 11 -6 20 -16 20
-21 0 -5 -9 -1 -20 9 -20 18 -21 18 -36 -4 -10 -13 -22 -20 -32 -17 -10 3 -24
1 -32 -4 -13 -8 -12 -11 5 -24 11 -8 18 -17 15 -19 -11 -12 -42 24 -42 48 0
24 -2 25 -19 9 -10 -9 -15 -22 -12 -30 3 -8 7 -13 10 -11 2 3 17 -7 33 -21 16
-14 28 -28 26 -30 -4 -3 -196 124 -206 137 -3 3 -3 5 -1 4 2 -2 10 2 17 8 7 6
23 7 35 4 21 -7 21 -9 6 -20 -16 -12 -16 -13 1 -17 13 -4 18 1 18 15 0 14 -12
25 -38 35 -43 17 -44 31 -5 50 34 17 36 36 3 28 -15 -4 -28 -1 -32 6 -5 8 -2
9 9 5 10 -3 17 -2 17 4 0 6 -9 13 -20 16 -11 3 -17 9 -14 14 2 5 -6 11 -20 15
-13 3 -27 12 -30 20 -3 8 -12 11 -22 7 -12 -4 -15 -3 -10 5 4 7 1 12 -8 12 -9
0 -16 5 -16 10 0 6 -5 10 -11 10 -5 0 -8 -4 -4 -9 3 -5 0 -13 -6 -16 -6 -4 -8
-18 -5 -31 6 -24 6 -24 -12 -7 -19 18 -19 18 1 34 13 11 16 18 8 23 -6 4 -11
2 -11 -4 0 -6 -5 -8 -10 -5 -6 4 -9 1 -8 -7 2 -7 -3 -12 -9 -10 -12 2 -15 -2
-17 -30 -1 -7 -5 -16 -11 -20 -6 -4 -2 -8 8 -8 9 0 17 -4 17 -10 0 -5 9 -10
20 -10 12 0 31 -11 43 -24 25 -26 93 -66 117 -67 10 0 8 -3 -5 -9 -13 -5 -27
-3 -40 6 -50 35 -171 114 -178 117 -8 2 60 127 69 127 2 0 183 -118 209 -138
10 -6 53 -31 100 -56 11 -6 30 -20 43 -30 12 -11 22 -15 22 -10 0 14 -13 28
-35 40 -20 11 -47 98 -61 194 -6 42 -3 49 42 110 26 36 49 60 50 55 2 -6 12
-64 24 -130z m-11600 31 c0 -6 -7 -2 -15 8 -8 11 -15 25 -15 30 0 6 7 2 15 -8
8 -11 15 -25 15 -30z m44 -57 c26 -43 53 -69 74 -70 14 0 14 -2 -3 -8 -11 -5
-25 -5 -31 0 -16 13 -74 109 -66 109 4 0 16 -14 26 -31z m11153 -114 c9 -25
-4 -29 -17 -6 -7 15 -7 21 0 21 6 0 13 -7 17 -15z m70 -41 c-9 -9 -28 6 -21
18 4 6 10 6 17 -1 6 -6 8 -13 4 -17z m43 16 c0 -5 -2 -10 -4 -10 -3 0 -8 5
-11 10 -3 6 -1 10 4 10 6 0 11 -4 11 -10z m37 -56 c-3 -3 -14 -1 -24 5 -16 9
-16 10 -1 11 12 0 16 6 12 18 -2 9 1 7 7 -6 7 -12 10 -25 6 -28z m-57 16 c0
-5 -5 -10 -11 -10 -5 0 -7 5 -4 10 3 6 8 10 11 10 2 0 4 -4 4 -10z m-10306
-68 c16 -23 27 -44 25 -45 -2 -2 -38 -28 -79 -58 -141 -104 -321 -229 -329
-229 -5 0 -11 -4 -13 -8 -8 -19 -68 -52 -85 -46 -13 4 -15 3 -4 -4 11 -8 11
-11 0 -18 -52 -33 -52 -33 -91 28 l-37 58 56 45 c32 24 59 42 61 40 2 -2 14 5
25 16 33 30 74 48 99 42 17 -3 19 -2 9 5 -10 8 -9 13 9 25 12 9 30 13 39 10
13 -4 13 -3 2 5 -11 8 -4 16 30 38 24 16 46 31 49 34 9 10 145 105 165 115 23
12 27 10 69 -53z m10346 38 c0 -5 -2 -10 -4 -10 -3 0 -8 5 -11 10 -3 6 -1 10
4 10 6 0 11 -4 11 -10z m441 -4 c5 3 9 -2 9 -10 0 -11 9 -16 30 -16 21 0 28 4
24 14 -3 7 2 16 10 19 9 4 16 2 16 -3 0 -6 -5 -10 -12 -10 -16 0 -1 -13 20
-16 9 -2 20 2 24 9 4 6 10 8 13 5 17 -16 -10 -26 -72 -27 -67 0 -83 7 -82 39
0 10 2 11 6 2 2 -6 9 -10 14 -6z m-61 -138 c0 -6 -6 -5 -15 2 -8 7 -15 14 -15
16 0 2 7 1 15 -2 8 -4 15 -11 15 -16z m-125 2 c3 -5 2 -10 -4 -10 -5 0 -13 5
-16 10 -3 6 -2 10 4 10 5 0 13 -4 16 -10z m-605 -342 c0 -6 -3 -9 -6 -5 -3 3
-17 2 -30 -3 -30 -12 -32 -2 -1 10 30 12 37 12 37 -2z m75 2 c8 -13 -5 -13
-25 0 -13 8 -13 10 2 10 9 0 20 -4 23 -10z m46 -27 c13 -15 12 -15 -8 -4 -24
12 -29 21 -14 21 5 0 15 -7 22 -17z m-201 -27 c0 -2 -8 -10 -17 -17 -16 -13
-17 -12 -4 4 13 16 21 21 21 13z m-20 -40 c0 -2 -7 -9 -15 -16 -13 -11 -14
-10 -9 4 5 14 24 23 24 12z m134 -34 c3 -5 -9 -9 -27 -9 -26 -1 -28 1 -12 7
27 11 33 12 39 2z m-9873 -26 c-9 -11 -9 -15 1 -19 7 -2 0 -4 -15 -4 -16 0
-33 -5 -38 -10 -5 -5 5 -7 26 -5 21 3 35 0 35 -7 0 -18 32 -13 56 10 l22 20
52 -48 c29 -26 75 -81 102 -122 39 -60 48 -82 48 -118 0 -52 -33 -123 -61
-130 -10 -3 -19 -14 -19 -24 0 -11 -4 -19 -9 -19 -11 0 -36 30 -25 30 5 0 -6
8 -23 16 -36 18 -45 53 -15 55 16 1 16 2 0 6 -23 6 -81 -35 -74 -52 2 -7 -1
-16 -8 -18 -28 -11 -10 27 35 71 63 62 70 91 33 143 -31 45 -69 75 -99 80 -25
4 -65 -9 -65 -22 0 -5 -4 -9 -9 -9 -4 0 -6 12 -3 28 2 15 2 25 -1 22 -3 -3 -7
-17 -9 -32 -2 -16 -26 -47 -61 -80 -59 -55 -67 -78 -42 -111 7 -11 11 -25 8
-33 -3 -9 0 -13 8 -10 8 3 24 -8 37 -25 27 -34 22 -39 -8 -7 -11 12 -20 17
-20 12 0 -23 63 -74 92 -74 34 0 29 -16 -9 -31 -14 -5 -24 -12 -21 -15 3 -2
17 0 32 6 18 6 25 6 21 0 -3 -6 -1 -10 5 -10 6 0 9 -4 5 -9 -3 -5 3 -12 12
-14 14 -4 13 -5 -4 -6 -13 0 -23 4 -23 9 0 6 -11 10 -25 10 -18 0 -23 -4 -19
-15 4 -8 10 -15 16 -15 5 0 6 5 3 10 -3 6 -1 10 4 10 6 0 11 -7 11 -15 0 -48
-120 37 -197 140 -69 90 -88 139 -74 186 22 72 172 212 261 243 57 19 65 19
51 2z m9909 4 c0 -5 -2 -10 -4 -10 -3 0 -8 5 -11 10 -3 6 -1 10 4 10 6 0 11
-4 11 -10z m-9855 -10 c8 -13 -5 -13 -25 0 -13 8 -13 10 2 10 9 0 20 -4 23
-10z m9921 -47 c-6 -6 -55 29 -56 40 0 5 14 -1 31 -13 16 -12 28 -24 25 -27z
m-282 5 c-9 -14 -23 2 -17 18 4 12 8 13 14 3 4 -7 5 -17 3 -21z m-9644 18 c0
-2 -7 -6 -15 -10 -8 -3 -15 -1 -15 4 0 6 7 10 15 10 8 0 15 -2 15 -4z m9631
-48 c24 -12 47 -21 52 -20 4 1 7 -2 7 -8 0 -5 16 -27 35 -49 19 -21 35 -45 35
-52 0 -20 -46 -39 -60 -25 -8 8 -12 5 -16 -12 -7 -23 -19 -29 -29 -12 -3 6
-11 10 -17 10 -6 0 6 -17 28 -37 74 -71 69 -78 -8 -14 -80 65 -87 75 -65 85 6
3 2 3 -10 0 -14 -3 -35 5 -62 24 l-40 29 46 52 c25 28 48 51 52 51 4 0 27 -10
52 -22z m39 7 c7 -9 8 -15 2 -15 -5 0 -12 7 -16 15 -3 8 -4 15 -2 15 2 0 9 -7
16 -15z m540 -35 c0 -19 -18 -19 -23 -1 -3 14 -1 18 9 14 8 -3 14 -9 14 -13z
m-417 -121 c4 -3 2 -11 -5 -17 -11 -9 -14 -5 -16 15 -1 15 1 22 5 17 5 -5 12
-11 16 -15z m-35 -20 c-2 -6 -8 -10 -13 -10 -5 0 -11 4 -13 10 -2 6 4 11 13
11 9 0 15 -5 13 -11z m72 -9 c12 -7 12 -12 2 -22 -9 -9 -12 -8 -12 6 0 9 -4
14 -10 11 -5 -3 -10 -1 -10 4 0 13 10 14 30 1z m-120 -9 c0 -5 -7 -11 -14 -14
-10 -4 -13 -1 -9 9 6 15 23 19 23 5z m85 -11 c3 -5 1 -10 -4 -10 -6 0 -11 5
-11 10 0 6 2 10 4 10 3 0 8 -4 11 -10z m-24 -107 c13 -16 12 -17 -3 -4 -10 7
-18 15 -18 17 0 8 8 3 21 -13z m-9811 -65 c-22 -24 -26 -38 -10 -38 6 0 10 -9
10 -20 0 -11 -5 -20 -11 -20 -5 0 -7 5 -4 10 11 17 -15 40 -46 40 -15 0 -31 5
-34 10 -4 6 8 10 27 10 19 0 43 7 54 15 29 22 37 18 14 -7z m120 7 c13 8 52
-47 41 -58 -13 -13 -34 2 -27 20 11 27 -5 34 -25 12 -10 -12 -19 -17 -19 -11
0 6 4 13 10 17 5 3 8 11 6 18 -1 7 -1 9 1 4 3 -4 8 -5 13 -2z m9804 -31 c14
-14 22 -34 13 -34 -2 0 -14 11 -27 25 -25 27 -12 35 14 9z m-9864 -28 c0 -3
-4 -8 -10 -11 -5 -3 -10 -1 -10 4 0 6 5 11 10 11 6 0 10 -2 10 -4z m821 -38
c27 -22 49 -44 49 -49 0 -4 -37 -45 -82 -92 -62 -64 -86 -82 -94 -74 -8 9 -8
19 -1 35 14 31 -10 49 -31 24 -12 -15 -13 -15 -9 6 3 12 2 22 -2 22 -15 0 -51
-32 -45 -41 3 -5 2 -8 -3 -7 -9 3 -13 -5 -13 -27 0 -8 5 -15 11 -15 5 0 7 4 4
10 -3 6 1 7 10 4 11 -5 14 -2 9 10 -4 11 -1 16 10 16 41 0 1 -41 -45 -46 -27
-3 -30 -2 -19 11 7 8 9 15 5 15 -13 0 -74 -67 -68 -74 4 -3 -2 -6 -13 -6 -13
0 -6 -9 24 -28 23 -15 40 -33 37 -39 -2 -7 -3 -13 -1 -13 3 0 11 -3 19 -6 20
-7 16 19 -6 44 -9 10 -17 27 -17 38 0 16 -2 17 -10 4 -5 -8 -10 -10 -10 -5 0
16 18 40 25 33 3 -3 8 -19 9 -34 2 -19 9 -29 19 -28 10 1 14 -4 10 -15 -4 -15
-3 -15 9 0 7 9 19 14 27 11 8 -3 11 0 7 7 -5 7 1 11 13 11 17 0 21 6 21 35 0
19 -4 35 -10 35 -5 0 -10 5 -10 10 0 19 15 9 33 -22 12 -22 15 -34 7 -42 -14
-14 -13 -26 3 -22 6 1 9 1 4 -1 -4 -3 -4 -9 -1 -15 4 -6 -1 -6 -14 1 -15 8
-23 7 -32 -4 -7 -8 -18 -15 -26 -15 -7 0 -16 -5 -20 -12 -5 -7 -3 -8 7 -3 8 5
6 -1 -5 -13 -10 -12 -23 -19 -29 -15 -5 3 -8 2 -4 -3 8 -14 -20 -47 -34 -39
-7 5 -10 3 -7 -6 3 -8 -1 -26 -10 -40 -12 -21 -13 -33 -3 -59 6 -18 9 -36 6
-38 -3 -3 -5 0 -5 7 0 9 -4 9 -14 -1 -12 -11 -9 -34 9 -56 8 -10 33 12 28 26
-5 13 -2 12 19 -4 24 -18 29 -42 6 -28 -7 4 -8 2 -4 -5 5 -8 12 -9 20 -2 7 6
22 8 34 4 54 -14 192 120 192 186 0 15 -15 39 -42 64 -34 32 -36 36 -11 18 18
-12 35 -26 38 -31 11 -19 35 -10 35 12 0 17 3 19 12 10 18 -18 38 -15 31 6 -6
14 -4 15 9 4 8 -7 24 -9 34 -6 16 6 17 5 7 -7 -17 -18 -16 -29 3 -29 9 0 12 5
8 13 -5 9 -4 9 5 1 21 -19 30 -111 13 -142 -8 -15 -21 -39 -29 -54 -39 -74
-160 -177 -216 -183 -12 -1 -24 -3 -27 -5 -11 -5 -66 3 -85 12 -47 25 -99 74
-112 107 -11 24 -12 36 -4 39 19 6 12 22 -9 22 -14 0 -20 6 -19 23 1 16 2 18
6 5 4 -17 23 -26 23 -10 -1 25 -49 55 -69 42 -18 -11 -4 -30 17 -24 14 5 15 4
2 -5 -11 -8 -19 -6 -31 8 -11 13 -20 16 -30 10 -10 -6 -10 -9 -1 -9 6 0 12 -5
12 -11 0 -6 -22 7 -50 28 -27 21 -48 41 -47 44 2 6 108 120 275 296 34 36 62
68 62 71 0 6 10 18 86 99 33 35 60 63 62 63 2 0 26 -19 53 -42z m-854 -4 c-3
-3 -12 -4 -19 -1 -8 3 -5 6 6 6 11 1 17 -2 13 -5z m11 -35 c-20 -13 -28 -11
-22 5 3 8 12 12 21 9 12 -5 12 -7 1 -14z m9228 -8 c16 -10 74 -66 129 -125 54
-58 116 -118 137 -132 21 -15 38 -29 38 -33 -1 -13 -92 -76 -117 -81 -19 -4
-41 -25 -77 -78 -54 -77 -103 -118 -151 -126 -29 -5 -28 -5 3 6 29 10 33 15
30 38 -2 15 1 27 7 27 7 0 10 -11 7 -25 -4 -23 -3 -24 10 -11 9 7 13 20 10 28
-4 10 -1 13 12 8 10 -4 15 -3 11 3 -3 6 -16 10 -28 11 -12 0 -16 3 -9 6 6 2
12 9 12 14 0 6 -4 8 -9 5 -5 -3 -12 1 -15 10 -5 13 -1 15 18 10 24 -6 47 9 26
16 -6 2 5 21 25 42 19 21 35 44 35 50 0 17 -59 86 -74 86 -18 0 -126 -106
-126 -124 0 -30 14 -47 51 -67 44 -22 52 -33 13 -19 -32 13 -37 12 -29 0 3 -5
2 -10 -3 -10 -14 0 -33 26 -25 33 3 4 -1 7 -10 7 -9 0 -17 5 -17 11 0 5 -5 7
-11 4 -7 -5 -6 -12 4 -23 10 -11 12 -24 7 -37 -5 -11 -9 -17 -11 -12 -1 4 -3
10 -4 15 -2 4 -6 17 -10 28 -5 16 -12 20 -27 16 -14 -3 -19 -1 -14 6 8 14 -3
15 -23 3 -17 -11 -6 -32 13 -25 8 3 17 1 21 -5 3 -7 0 -8 -9 -5 -9 3 -16 1
-16 -5 0 -6 5 -11 11 -11 5 0 8 -4 5 -9 -8 -13 21 -34 35 -26 8 5 9 1 5 -13
-6 -17 -3 -20 16 -16 21 4 21 4 3 -5 -15 -6 -26 -3 -47 18 -15 14 -28 31 -28
37 0 6 -7 17 -15 24 -41 34 -1 122 91 196 102 82 101 80 82 114 -12 20 -13 30
-5 33 7 3 1 5 -13 5 -46 2 -60 5 -60 14 0 5 24 8 53 6 40 -2 52 0 52 11 0 8
-6 15 -13 17 -7 1 -8 0 -2 -3 5 -2 10 -9 10 -14 0 -12 -37 -12 -45 1 -3 6 -16
11 -28 11 -19 1 34 17 70 21 20 2 11 48 -9 48 -10 0 -18 5 -18 10 0 14 11 12
46 -9z m-9266 4 c0 -7 -30 -13 -34 -7 -3 4 4 9 15 9 10 1 19 0 19 -2z m9146
-7 c4 -7 4 -10 -1 -6 -13 12 -44 -7 -109 -67 -15 -14 -30 -24 -32 -22 -7 7
114 104 133 107 1 0 5 -6 9 -12z m-206 -168 c-6 -4 -12 -11 -13 -16 -1 -5 -6
-8 -11 -6 -5 2 -4 -4 4 -13 11 -14 14 -14 25 2 11 14 17 15 36 5 22 -11 22
-12 2 -7 -27 7 -35 -5 -18 -28 11 -15 13 -16 19 -2 3 8 12 15 21 15 8 0 15 7
15 15 0 8 7 15 15 15 9 0 18 6 21 14 3 8 13 17 22 21 9 3 -17 -28 -58 -70
l-75 -76 -27 31 c-15 16 -32 30 -38 30 -16 0 -12 9 21 51 17 22 35 36 41 33 7
-4 6 -9 -2 -14z m-8250 -25 c0 -17 -27 -32 -37 -21 -4 3 2 13 13 21 24 18 24
18 24 0z m119 -6 c18 -6 31 -18 31 -27 -1 -15 -2 -15 -11 1 -5 9 -19 17 -29
17 -10 0 -22 5 -25 10 -8 13 -5 12 34 -1z m110 -50 c13 -11 22 -21 20 -23 -2
-3 -17 7 -32 20 -15 13 -24 24 -20 24 4 -1 19 -10 32 -21z m7481 -229 c0 -5 6
-7 14 -4 17 7 106 -64 106 -84 0 -6 4 -12 8 -14 10 -4 52 -76 52 -90 0 -11
-14 -2 -16 10 -2 20 -17 41 -25 36 -5 -3 -6 2 -3 10 7 17 -11 22 -21 6 -12
-20 -43 -10 -49 15 -4 14 -11 25 -17 25 -6 0 -9 -5 -7 -12 6 -18 -45 -63 -52
-46 -6 16 -24 21 -73 19 -31 -1 -38 2 -35 16 2 10 12 19 23 21 51 8 64 13 70
32 5 15 12 19 25 15 10 -3 21 -2 23 3 6 9 -7 34 -17 33 -18 -3 -26 0 -26 9 0
6 5 10 10 10 6 0 10 -4 10 -10z m840 0 c0 -5 -8 -10 -17 -10 -15 0 -16 2 -3
10 19 12 20 12 20 0z m-971 -97 c2 -2 1 -6 -3 -10 -4 -4 -16 3 -26 17 l-19 25
-21 -23 -21 -22 33 0 c24 0 29 -3 18 -9 -8 -6 -18 -7 -22 -5 -4 3 -8 -2 -8
-10 0 -21 -16 -20 -24 1 -5 13 -9 14 -19 4 -9 -10 -7 -17 12 -32 13 -10 19
-19 15 -19 -5 0 -3 -4 4 -9 9 -5 2 -15 -28 -35 -36 -24 -53 -59 -32 -68 13 -6
74 -89 69 -95 -3 -2 -23 18 -44 46 -21 29 -39 47 -41 41 -2 -5 -8 -10 -14 -10
-7 0 -7 5 1 13 13 16 3 30 -13 19 -15 -10 -56 -10 -56 0 0 4 -5 8 -11 8 -6 0
-8 -9 -3 -22 7 -23 6 -23 -15 -4 -25 23 -28 6 -5 -29 19 -28 8 -34 -13 -7 -18
22 -55 93 -51 97 15 12 198 129 221 142 17 8 37 22 45 30 13 12 18 11 41 -9
14 -13 28 -24 30 -25z m71 37 c0 -5 -4 -10 -10 -10 -5 0 -10 5 -10 10 0 6 5
10 10 10 6 0 10 -4 10 -10z m847 -26 c-3 -3 -12 -4 -19 -1 -8 3 -5 6 6 6 11 1
17 -2 13 -5z m-732 -64 c3 -5 1 -10 -4 -10 -6 0 -11 5 -11 10 0 6 2 10 4 10 3
0 8 -4 11 -10z m-185 -4 c0 -2 -7 -7 -16 -10 -8 -3 -12 -2 -9 4 6 10 25 14 25
6z m189 -32 c2 -2 -4 -4 -14 -4 -17 0 -17 -1 -1 -19 10 -11 16 -28 13 -38 -3
-13 -8 -8 -22 22 -9 22 -22 44 -29 48 -6 4 3 5 19 1 17 -4 32 -8 34 -10z
m-7019 -98 c0 -11 -19 -15 -25 -6 -3 5 1 10 9 10 9 0 16 -2 16 -4z m7010 -21
c0 -8 -5 -15 -11 -15 -5 0 -7 -5 -4 -10 4 -6 10 -8 15 -5 5 3 12 0 15 -6 12
-18 -3 -22 -25 -6 -20 14 -24 13 -39 -1 -10 -10 -16 -23 -13 -29 5 -15 -14
-17 -23 -3 -3 6 -12 10 -18 10 -7 0 -6 -4 3 -10 13 -9 13 -10 0 -11 -8 -1 -21
-1 -28 0 -7 1 -11 -3 -10 -10 2 -6 -12 -20 -31 -31 l-34 -19 -26 25 c-14 14
-20 26 -13 26 7 0 15 -7 18 -15 7 -16 44 -21 44 -5 0 5 28 28 63 52 34 23 71
50 81 60 24 22 36 23 36 3z m130 5 c0 -5 -2 -10 -4 -10 -3 0 -8 5 -11 10 -3 6
-1 10 4 10 6 0 11 -4 11 -10z m-73 -11 c-14 -8 -22 -8 -30 0 -8 8 -3 11 19 11
25 -1 27 -2 11 -11z m34 -21 c-3 -21 -6 -26 -9 -15 -3 17 3 47 11 47 2 0 1
-15 -2 -32z m29 8 c0 -3 -4 -8 -10 -11 -5 -3 -10 -1 -10 4 0 6 5 11 10 11 6 0
10 -2 10 -4z m-6852 -30 c41 -21 79 -67 90 -106 12 -47 -3 -88 -79 -210 -57
-92 -79 -117 -79 -89 0 5 4 7 10 4 6 -3 7 1 4 9 -3 9 -10 14 -14 11 -16 -10
-21 15 -6 30 13 13 15 13 21 -6 l7 -21 16 23 c14 20 14 23 -4 36 -16 12 -20
12 -30 -2 -14 -19 -28 -19 -44 0 -14 16 -52 14 -58 -3 -2 -7 -8 -12 -14 -12
-5 0 0 12 11 26 12 15 21 37 21 50 0 12 5 26 10 29 16 10 12 35 -6 35 -14 0
-14 -3 -4 -15 9 -10 9 -15 1 -15 -11 0 -15 13 -12 38 1 6 -5 12 -12 12 -8 0
-17 6 -20 14 -8 20 -47 28 -47 9 0 -8 -4 -11 -10 -8 -6 3 -7 -1 -4 -10 5 -13
0 -15 -35 -9 -35 6 -46 3 -65 -15 -12 -12 -26 -18 -29 -14 -12 12 -7 23 7 17
13 -5 13 -2 3 19 -7 15 -15 21 -18 15 -4 -6 -15 -8 -24 -4 -18 7 -13 21 8 21
5 0 12 6 15 14 3 8 0 11 -7 7 -6 -4 -11 -3 -11 2 0 6 -6 12 -14 15 -9 4 -12 0
-9 -13 3 -10 -1 -21 -8 -26 -9 -5 -11 -2 -6 9 3 10 2 17 -3 17 -10 0 -14 -14
-10 -39 1 -13 -1 -13 -14 -2 -14 12 -13 16 7 41 28 35 69 60 98 60 22 0 22 -1
4 -13 -17 -13 -16 -15 15 -30 18 -9 36 -14 41 -12 4 3 11 0 15 -6 4 -8 3 -9
-4 -5 -7 4 -12 3 -12 -2 0 -14 34 -25 38 -13 2 6 9 8 15 4 7 -3 3 3 -7 15 -11
12 -27 22 -36 22 -9 0 -17 7 -17 15 0 17 13 20 22 4 4 -5 17 -14 28 -20 23 -9
59 -30 67 -39 3 -3 25 -18 49 -34 50 -32 65 -29 86 21 13 31 12 35 -13 65 -20
24 -22 30 -9 25 11 -4 20 -1 23 7 3 8 14 12 26 8 14 -3 19 -1 14 6 -5 8 1 12
16 12 16 0 19 -3 10 -9 -11 -7 -11 -9 2 -14 32 -13 26 14 -8 34 -51 30 -49 42
2 15z m-153 -24 c-3 -3 -11 0 -18 7 -9 10 -8 11 6 5 10 -3 15 -9 12 -12z
m6479 -28 c5 -14 4 -15 -9 -4 -17 14 -19 20 -6 20 5 0 12 -7 15 -16z m-6827
-146 c-3 -7 -5 -2 -5 12 0 14 2 19 5 13 2 -7 2 -19 0 -25z m283 12 c4 7 13 9
19 6 16 -10 4 -26 -20 -26 -12 0 -19 7 -18 18 0 12 2 13 6 3 4 -10 7 -11 13
-1z m7145 -20 c3 -6 -1 -7 -9 -4 -18 7 -21 14 -7 14 6 0 13 -4 16 -10z m-7105
-20 c0 -5 -2 -10 -4 -10 -3 0 -8 5 -11 10 -3 6 -1 10 4 10 6 0 11 -4 11 -10z
m803 -40 c-3 -12 -8 -19 -11 -16 -5 6 5 36 12 36 2 0 2 -9 -1 -20z m-20 -50
c-3 -11 -10 -20 -15 -20 -6 0 -8 -11 -6 -25 3 -13 2 -22 -2 -20 -5 3 -10 -2
-14 -10 -3 -8 -2 -14 2 -14 25 4 42 -3 43 -18 1 -10 7 0 14 22 8 22 14 33 14
24 1 -9 7 -22 15 -28 11 -10 16 -8 24 6 6 10 14 14 18 10 13 -13 -29 -37 -43
-25 -10 8 -13 3 -13 -21 0 -19 4 -30 10 -26 6 3 10 1 10 -6 0 -12 -38 -101
-66 -154 -9 -16 -39 -75 -66 -130 -28 -55 -52 -101 -53 -103 -2 -2 -105 59
-123 73 -2 2 10 28 25 59 18 38 32 55 41 51 10 -4 12 0 8 11 -7 17 159 364
174 364 4 0 6 -9 3 -20z m-1042 -17 c13 -16 12 -17 -3 -4 -10 7 -18 15 -18 17
0 8 8 3 21 -13z m400 3 c5 3 9 1 9 -5 0 -5 -4 -13 -10 -16 -5 -3 -10 -4 -10
-1 0 2 -2 10 -3 18 -2 7 -2 10 0 5 3 -4 9 -5 14 -1z m-141 -22 c0 -2 -7 -4
-15 -4 -8 0 -15 4 -15 10 0 5 7 7 15 4 8 -4 15 -8 15 -10z m60 6 c0 -5 -5 -10
-11 -10 -5 0 -7 5 -4 10 3 6 8 10 11 10 2 0 4 -4 4 -10z m832 -22 c-7 -7 -12
-8 -12 -2 0 14 12 26 19 19 2 -3 -1 -11 -7 -17z m4445 -85 c41 -109 58 -162
55 -175 -1 -5 3 -8 8 -8 6 0 10 -5 10 -11 0 -6 -6 -9 -14 -6 -8 3 -17 -2 -21
-11 -5 -15 -9 -14 -26 8 -14 17 -22 21 -26 13 -2 -7 -11 -13 -19 -13 -8 0 -14
-4 -14 -8 0 -5 7 -9 15 -9 8 0 15 5 15 11 0 6 5 5 12 -2 10 -10 10 -15 -1 -21
-7 -5 -10 -14 -7 -20 4 -6 3 -11 -3 -11 -5 0 -12 6 -14 13 -3 6 -3 -6 0 -28 5
-40 32 -107 45 -113 4 -2 4 -10 1 -18 -6 -17 25 -44 42 -37 7 2 18 -3 25 -12
11 -14 11 -18 1 -25 -8 -4 -10 -13 -6 -20 6 -9 9 -9 15 -1 4 7 17 13 29 14 13
1 20 6 17 14 -3 8 2 13 14 13 20 0 45 -44 52 -91 3 -20 -5 -25 -61 -42 -73
-21 -71 -23 -97 63 -10 30 -23 66 -30 80 -11 21 -48 117 -177 458 -11 29 -18
55 -15 57 7 7 110 44 124 45 5 0 28 -48 51 -107z m-5532 87 c3 -5 1 -10 -4
-10 -6 0 -11 5 -11 10 0 6 2 10 4 10 3 0 8 -4 11 -10z m35 -25 c11 -13 10 -14
-4 -9 -9 3 -16 10 -16 15 0 13 6 11 20 -6z m60 -15 c0 -5 -7 -10 -15 -10 -8 0
-15 5 -15 10 0 6 7 10 15 10 8 0 15 -4 15 -10z m45 -20 c-2 -12 6 -27 22 -40
31 -24 22 -27 -12 -4 -24 16 -33 43 -18 57 10 11 12 8 8 -13z m160 -20 c-10
-11 -20 -18 -23 -15 -7 6 18 35 31 35 5 0 2 -9 -8 -20z m6695 16 c0 -9 -30
-14 -35 -6 -4 6 3 10 14 10 12 0 21 -2 21 -4z m-6733 -79 c-13 -24 -14 -25
-36 -8 l-24 18 22 6 c11 3 19 1 15 -4 -3 -5 0 -9 6 -9 6 0 13 7 17 15 3 9 7
14 9 12 3 -2 -2 -15 -9 -30z m4653 -21 c0 -21 -21 -31 -32 -15 -6 9 -7 3 -3
-18 6 -28 4 -32 -10 -27 -12 5 -16 2 -13 -12 2 -11 -2 -18 -9 -16 -7 1 -13 -7
-13 -19 0 -17 5 -15 38 18 20 21 36 44 34 51 -2 6 0 12 5 12 5 0 17 -35 27
-77 10 -43 20 -86 23 -96 5 -18 4 -18 -14 0 -11 10 -17 27 -15 38 l4 20 -15
-20 c-13 -16 -16 -17 -17 -4 0 9 3 19 6 22 4 4 8 23 9 44 1 21 0 30 -2 20 -3
-9 -8 -15 -12 -13 -4 3 -7 -5 -7 -17 1 -14 -9 -26 -26 -35 -16 -7 -28 -21 -29
-30 0 -14 -2 -13 -9 3 -7 17 -9 16 -9 -9 -1 -43 -9 -29 -26 50 -8 38 -17 78
-20 89 -5 17 2 22 47 36 68 21 88 22 88 5z m716 -188 c10 -29 18 -59 18 -65
-1 -7 2 -13 6 -13 8 0 30 -53 30 -71 0 -5 -7 -9 -15 -9 -8 0 -12 6 -9 14 3 8
0 24 -6 36 -10 18 -14 19 -28 8 -15 -11 -15 -11 -5 2 9 12 9 28 0 69 -11 48
-14 52 -26 38 -7 -10 -21 -17 -30 -16 -11 0 -9 3 7 9 12 6 22 18 22 30 0 36
15 21 36 -32z m-3021 32 c3 -5 1 -10 -4 -10 -6 0 -11 5 -11 10 0 6 2 10 4 10
3 0 8 -4 11 -10z m114 1 c7 -5 9 -11 5 -14 -5 -3 -15 1 -22 9 -14 16 -5 18 17
5z m561 -142 c0 -71 -3 -129 -7 -129 -5 0 -9 61 -9 135 -1 76 2 132 7 129 5
-3 9 -63 9 -135z m-780 121 c0 -5 -7 -10 -16 -10 -8 0 -12 5 -9 10 3 6 10 10
16 10 5 0 9 -4 9 -10z m861 -12 l2 -23 4 23 c7 35 33 27 34 -10 3 -70 -3 -333
-8 -341 -2 -4 -9 -5 -14 -1 -6 4 -6 11 2 20 11 13 2 19 -23 15 -5 0 -8 6 -8
14 0 8 5 15 10 15 6 0 10 -4 10 -10 0 -5 4 -10 9 -10 4 0 8 33 8 74 1 58 -2
76 -14 81 -22 8 -29 -3 -17 -23 6 -9 8 -26 4 -37 -7 -18 -8 -18 -15 6 -3 15
-6 35 -4 45 2 22 -10 56 -24 66 -6 4 -4 12 5 22 14 14 16 12 23 -17 4 -18 9
-26 12 -19 3 7 -2 31 -11 53 -19 48 -20 63 -3 53 8 -5 9 -4 2 4 -5 6 -21 12
-35 15 -18 3 -15 5 13 6 32 1 37 -2 38 -21z m1519 14 c0 -5 -9 -17 -20 -27
-19 -17 -19 -17 -7 9 12 25 27 35 27 18z m-2407 -25 c4 3 7 1 7 -5 0 -15 -36
-16 -45 -2 -3 6 -3 15 1 22 5 8 11 6 19 -5 7 -9 15 -14 18 -10z m824 -9 c-3
-8 -6 -5 -6 6 -1 11 2 17 5 13 3 -3 4 -12 1 -19z m985 11 c16 -9 23 -8 29 2 7
12 11 11 19 -1 15 -23 12 -30 -12 -31 -13 0 -47 -4 -75 -8 -47 -7 -53 -5 -53
11 0 14 6 17 30 14 20 -2 30 1 30 10 0 17 5 17 32 3z m-1732 -19 c0 -5 -7 -10
-15 -10 -8 0 -15 5 -15 10 0 6 7 10 15 10 8 0 15 -4 15 -10z m2370 0 c0 -5 -4
-10 -10 -10 -5 0 -10 5 -10 10 0 6 5 10 10 10 6 0 10 -4 10 -10z m-2675 -29
c-3 -12 -10 -21 -15 -21 -4 0 -3 11 3 24 14 29 22 27 12 -3z m3356 -14 c-8 -8
-11 -5 -11 9 0 27 14 41 18 19 2 -9 -1 -22 -7 -28z m-3004 27 c-3 -3 -12 -4
-19 -1 -8 3 -5 6 6 6 11 1 17 -2 13 -5z m2245 -29 c3 -14 1 -28 -3 -31 -5 -3
-9 1 -9 8 0 7 -3 24 -7 37 -4 16 -2 22 4 18 6 -4 13 -18 15 -32z m728 11 c0
-3 -4 -8 -10 -11 -5 -3 -10 -1 -10 4 0 6 5 11 10 11 6 0 10 -2 10 -4z m-2773
-38 c-3 -8 -6 -5 -6 6 -1 11 2 17 5 13 3 -3 4 -12 1 -19z m2178 12 c3 -5 1
-10 -4 -10 -6 0 -11 5 -11 10 0 6 2 10 4 10 3 0 8 -4 11 -10z m-2175 -38 c0
-5 -7 -9 -15 -9 -8 0 -15 4 -15 9 0 4 7 8 15 8 8 0 15 -4 15 -8z m1564 -132
c17 -146 19 -193 8 -186 -7 4 -12 16 -12 27 0 20 -15 26 -25 9 -13 -21 -43 -9
-69 28 -19 25 -26 30 -21 15 3 -13 2 -23 -3 -23 -5 0 -15 44 -22 98 -6 53 -14
107 -17 118 -5 23 -6 22 97 39 19 3 37 8 40 11 5 6 14 -44 24 -136z m496 96
c0 -26 -6 -18 -14 19 -5 22 -4 26 4 15 5 -8 10 -24 10 -34z m718 3 c-3 -8 -7
-3 -11 10 -4 17 -3 21 5 13 5 -5 8 -16 6 -23z m-1858 -13 c0 -3 -4 -8 -10 -11
-5 -3 -10 -1 -10 4 0 6 5 11 10 11 6 0 10 -2 10 -4z m40 -18 c-24 -20 -36 -18
-27 4 2 8 15 14 27 14 l22 0 -22 -18z m1900 2 c0 -4 -7 -10 -15 -14 -10 -4
-15 1 -15 14 0 13 5 18 15 14 8 -4 15 -10 15 -14z m30 10 c0 -5 -4 -10 -10
-10 -5 0 -10 5 -10 10 0 6 5 10 10 10 6 0 10 -4 10 -10z m-2045 -11 c-4 -6
-13 -8 -21 -5 -7 3 -16 1 -19 -4 -4 -6 -1 -10 4 -10 6 0 11 -4 11 -10 0 -5 -6
-7 -14 -4 -9 3 -15 -4 -18 -24 -3 -25 -1 -30 14 -27 24 5 23 -7 -2 -23 -17
-10 -20 -9 -26 13 -8 30 -20 32 -27 4 -3 -13 -1 -19 6 -16 15 5 36 -23 30 -39
-2 -7 -14 -9 -25 -6 -14 3 -19 1 -14 -6 4 -7 18 -11 31 -10 13 1 21 6 18 12
-4 5 -1 6 6 1 10 -6 11 -3 2 14 -10 17 -9 20 4 15 8 -4 17 1 21 10 6 17 34 23
34 7 0 -13 -26 -32 -33 -24 -4 3 -7 0 -7 -9 0 -8 -11 -25 -25 -38 -14 -13 -25
-30 -25 -37 0 -7 23 -42 50 -77 53 -67 63 -87 30 -59 -11 10 -20 22 -20 28 0
5 -14 21 -30 34 -16 13 -27 28 -24 35 2 6 -3 1 -12 -11 -17 -24 -34 -30 -34
-12 0 5 4 8 9 5 14 -9 22 36 9 51 -6 8 -13 11 -16 8 -3 -2 1 -11 7 -19 8 -10
9 -16 1 -21 -5 -3 -10 -1 -10 4 0 6 -5 11 -11 11 -6 0 -9 -6 -6 -14 3 -7 -1
-26 -9 -42 -14 -26 -13 -30 2 -41 16 -12 16 -13 2 -13 -9 0 -20 9 -23 20 -3
11 -12 20 -18 21 -7 0 -2 4 11 9 12 5 22 14 22 21 0 6 -7 9 -15 5 -8 -3 -15
-1 -15 4 0 6 -5 10 -11 10 -6 0 -9 -6 -6 -14 4 -10 0 -14 -13 -13 -15 1 -17 4
-7 16 9 11 9 15 -1 18 -6 3 -10 8 -7 13 3 4 -4 10 -15 13 -11 3 -23 1 -26 -4
-9 -14 -24 -10 -24 7 0 8 4 13 9 10 13 -8 41 4 41 17 0 14 41 57 54 57 6 0 4
-5 -4 -10 -10 -6 -11 -10 -2 -10 6 0 12 -5 12 -11 0 -6 -9 -8 -22 -4 -13 3
-18 3 -13 -2 6 -4 11 -15 13 -23 2 -8 8 -16 13 -18 5 -2 9 -10 9 -18 0 -8 5
-14 10 -14 14 0 12 11 -5 34 -18 23 -10 39 16 31 21 -7 24 2 9 25 -7 11 -10
11 -10 2 0 -7 -4 -11 -10 -7 -16 10 3 42 68 110 37 38 71 65 83 65 12 0 17 -4
14 -11z m1229 -34 c5 -22 4 -26 -4 -15 -5 8 -10 24 -10 34 0 26 6 18 14 -19z
m-2616 0 c-3 -3 -9 2 -12 12 -6 14 -5 15 5 6 7 -7 10 -15 7 -18z m2749 3 c-3
-8 -6 -5 -6 6 -1 11 2 17 5 13 3 -3 4 -12 1 -19z m-1347 -9 c0 -6 -4 -7 -10
-4 -5 3 -10 11 -10 16 0 6 5 7 10 4 6 -3 10 -11 10 -16z m60 -2 c0 -2 -11 -14
-25 -27 l-25 -23 0 24 c0 16 3 20 9 11 6 -10 10 -10 21 3 12 14 20 19 20 12z
m-1012 -36 c12 -10 22 -22 22 -26 0 -5 -8 -1 -18 8 -10 10 -22 14 -25 10 -4
-3 -7 1 -7 10 0 21 2 21 28 -2z m2182 -5 c0 -8 5 -27 12 -43 6 -15 13 -39 14
-53 2 -14 8 -26 14 -28 5 -2 8 -8 5 -13 -4 -5 1 -6 10 -3 8 4 21 2 28 -4 15
-11 67 -26 85 -23 6 1 12 -5 12 -13 0 -8 2 -21 5 -29 4 -10 -9 -19 -46 -30
-51 -17 -98 -23 -86 -11 3 4 2 15 -4 25 -17 32 -67 239 -58 239 5 0 9 -6 9
-14z m140 -7 c0 -6 -4 -7 -10 -4 -5 3 -10 11 -10 16 0 6 5 7 10 4 6 -3 10 -11
10 -16z m-1754 -16 c-10 -10 -19 5 -10 18 6 11 8 11 12 0 2 -7 1 -15 -2 -18z
m-859 1 c-3 -3 -12 -4 -19 -1 -8 3 -5 6 6 6 11 1 17 -2 13 -5z m2621 -35 c-3
-8 -7 -3 -11 10 -4 17 -3 21 5 13 5 -5 8 -16 6 -23z m-2280 0 c19 -30 11 -32
-11 -3 -10 13 -14 24 -10 24 5 0 14 -9 21 -21z m517 -216 c-1 -46 1 -83 5 -83
4 0 7 -8 6 -17 -1 -13 8 -19 29 -21 23 -2 27 0 15 7 -19 14 -8 14 26 1 21 -8
29 -8 36 2 6 10 8 9 8 -4 0 -13 -13 -17 -70 -20 l-70 -3 1 180 c2 138 4 164 9
110 4 -38 6 -107 5 -152z m-685 197 c0 -5 -2 -10 -4 -10 -3 0 -8 5 -11 10 -3
6 -1 10 4 10 6 0 11 -4 11 -10z m2460 -13 c0 -8 -7 -14 -15 -14 -11 0 -12 4
-4 14 6 7 13 13 15 13 2 0 4 -6 4 -13z m-2283 -49 c-3 -7 -5 -2 -5 12 0 14 2
19 5 13 2 -7 2 -19 0 -25z m1496 15 c-7 -2 -13 -17 -14 -31 l-1 -27 -7 25 c-7
24 3 40 24 39 6 0 4 -3 -2 -6z m800 -12 c3 -15 0 -19 -14 -18 -11 1 -19 4 -19
8 0 3 -11 4 -25 1 -14 -2 -25 0 -25 6 0 6 17 13 38 15 20 2 38 4 38 5 1 1 4
-7 7 -17z m-2880 -26 c-3 -9 -8 -14 -10 -11 -3 3 -2 9 2 15 9 16 15 13 8 -4z
m2112 -23 c-6 -7 -35 18 -35 31 0 5 9 2 20 -8 11 -10 18 -20 15 -23z m-885 -8
c0 -10 -6 -14 -15 -10 -10 3 -15 -1 -15 -11 0 -9 -3 -14 -6 -10 -3 3 -3 15 1
26 8 25 35 28 35 5z m-1043 0 c-3 -3 -12 -4 -19 -1 -8 3 -5 6 6 6 11 1 17 -2
13 -5z m28 -4 c3 -5 1 -10 -4 -10 -6 0 -11 5 -11 10 0 6 2 10 4 10 3 0 8 -4
11 -10z m1875 6 c0 -2 -7 -7 -16 -10 -8 -3 -12 -2 -9 4 6 10 25 14 25 6z m117
-18 c-3 -8 -6 -5 -6 6 -1 11 2 17 5 13 3 -3 4 -12 1 -19z m-1787 -10 c0 -10
-139 -9 -165 1 -12 5 18 8 72 7 51 -1 93 -4 93 -8z m-392 -23 c-3 -3 -9 2 -12
12 -6 14 -5 15 5 6 7 -7 10 -15 7 -18z m2058 16 c-3 -5 -3 -37 1 -71 5 -53 8
-61 24 -57 11 3 21 2 24 -3 3 -4 -9 -10 -25 -12 -27 -4 -30 -2 -30 21 0 14 -3
50 -6 79 -5 37 -3 52 5 52 7 0 10 -4 7 -9z m-1658 -38 c-8 -10 -14 -11 -16 -4
-2 6 -10 11 -18 11 -9 0 -13 4 -10 9 3 4 17 6 31 3 21 -4 23 -7 13 -19z m801
-30 c1 -7 -3 -13 -9 -13 -5 0 -10 17 -9 38 1 33 2 34 9 12 4 -14 8 -31 9 -37z
m989 32 c-3 -3 -9 2 -12 12 -6 14 -5 15 5 6 7 -7 10 -15 7 -18z m-1854 0 c-4
-8 -11 -12 -16 -9 -6 4 -5 10 3 15 19 12 19 11 13 -6z m999 -37 c32 -46 76
-90 86 -84 5 3 11 1 13 -4 2 -8 11 -8 28 -1 14 5 21 10 16 10 -5 1 -3 7 3 15
7 8 22 13 34 10 22 -4 64 -40 56 -48 -2 -2 -39 -6 -81 -8 l-77 -4 -56 68 c-31
37 -52 68 -47 68 5 0 17 -10 25 -22z m-146 -40 c-3 -8 -6 -5 -6 6 -1 11 2 17
5 13 3 -3 4 -12 1 -19z m1013 -4 c0 -8 -5 -12 -10 -9 -6 4 -8 11 -5 16 9 14
15 11 15 -7z m-30 -8 c0 -2 -11 -6 -25 -8 -13 -3 -22 -1 -19 3 5 9 44 13 44 5z"/>
<path d="M4667 13479 c7 -7 15 -10 18 -7 3 3 -2 9 -12 12 -14 6 -15 5 -6 -5z"/>
<path d="M4980 13691 c0 -5 5 -13 10 -16 6 -3 10 -2 10 4 0 5 -4 13 -10 16 -5
3 -10 2 -10 -4z"/>
<path d="M11756 10623 c-17 -48 -16 -63 1 -41 10 12 25 88 18 88 -2 0 -10 -21
-19 -47z"/>
<path d="M7341 10403 c-1 -12 4 -25 9 -28 12 -7 12 2 0 30 -8 19 -9 19 -9 -2z"/>
<path d="M7355 10340 c3 -5 8 -10 11 -10 2 0 4 5 4 10 0 6 -5 10 -11 10 -5 0
-7 -4 -4 -10z"/>
<path d="M11152 10145 c-17 -37 -14 -45 4 -12 9 16 14 31 11 33 -2 2 -9 -7
-15 -21z"/>
<path d="M11061 10084 c0 -11 3 -14 6 -6 3 7 2 16 -1 19 -3 4 -6 -2 -5 -13z"/>
<path d="M11110 10059 c-7 -11 -10 -23 -7 -25 2 -2 9 7 15 21 14 30 7 33 -8 4z"/>
<path d="M11080 9999 c-7 -11 -10 -23 -7 -25 2 -2 9 7 15 21 14 30 7 33 -8 4z"/>
<path d="M11043 9948 c-22 -34 -33 -62 -33 -82 0 -14 10 -4 30 33 17 30 30 56
30 58 0 8 -20 2 -27 -9z"/>
<path d="M10991 9824 c0 -11 3 -14 6 -6 3 7 2 16 -1 19 -3 4 -6 -2 -5 -13z"/>
<path d="M11450 9675 c-7 -9 -11 -17 -9 -20 3 -2 10 5 17 15 14 24 10 26 -8 5z"/>
<path d="M11639 9633 c-13 -16 -12 -17 4 -4 9 7 17 15 17 17 0 8 -8 3 -21 -13z"/>
<path d="M11410 9615 c0 -8 4 -15 9 -15 5 0 11 7 15 15 3 9 0 15 -9 15 -8 0
-15 -7 -15 -15z"/>
<path d="M11579 9573 c-22 -24 -26 -31 -11 -20 21 14 59 57 50 57 -2 0 -20
-16 -39 -37z"/>
<path d="M11262 9238 c-7 -7 -12 -16 -12 -20 0 -15 15 -8 28 12 13 22 3 27
-16 8z"/>
<path d="M3916 12501 c-3 -5 1 -11 9 -14 9 -4 12 -1 8 9 -6 16 -10 17 -17 5z"/>
<path d="M8151 11368 c0 -33 2 -38 9 -23 12 28 12 65 0 65 -5 0 -10 -19 -9
-42z"/>
<path d="M8635 11220 c-3 -5 -1 -10 4 -10 6 0 11 5 11 10 0 6 -2 10 -4 10 -3
0 -8 -4 -11 -10z"/>
<path d="M10200 9350 c0 -5 5 -10 10 -10 6 0 10 5 10 10 0 6 -4 10 -10 10 -5
0 -10 -4 -10 -10z"/>
<path d="M17058 11983 c7 -3 16 -2 19 1 4 3 -2 6 -13 5 -11 0 -14 -3 -6 -6z"/>
<path d="M17098 11983 c6 -2 18 -2 25 0 6 3 1 5 -13 5 -14 0 -19 -2 -12 -5z"/>
<path d="M16158 11903 c7 -3 16 -2 19 1 4 3 -2 6 -13 5 -11 0 -14 -3 -6 -6z"/>
<path d="M16014 11775 c36 -19 56 -19 56 0 0 11 -11 15 -42 15 l-43 0 29 -15z"/>
<path d="M15990 11740 c0 -5 5 -10 11 -10 5 0 7 5 4 10 -3 6 -8 10 -11 10 -2
0 -4 -4 -4 -10z"/>
<path d="M16590 11740 l-45 -7 40 -1 c22 -1 47 3 55 8 8 5 11 9 5 8 -5 0 -30
-4 -55 -8z"/>
<path d="M15864 11714 c3 -9 6 -18 6 -20 0 -2 9 -4 20 -4 24 0 27 25 4 34 -26
10 -36 7 -30 -10z"/>
<path d="M16630 11700 c0 -5 18 -10 40 -10 22 0 40 5 40 10 0 6 -18 10 -40 10
-22 0 -40 -4 -40 -10z"/>
<path d="M15584 11615 c10 -11 29 -15 53 -13 57 5 46 23 -16 26 -49 3 -52 2
-37 -13z m79 -2 c-7 -2 -21 -2 -30 0 -10 3 -4 5 12 5 17 0 24 -2 18 -5z"/>
<path d="M17419 11553 c177 -3 183 -4 178 -23 -3 -11 -1 -20 4 -20 5 0 9 11 9
25 l0 25 -187 -2 -188 -3 184 -2z"/>
<path d="M17602 11190 c0 -19 2 -27 5 -17 2 9 2 25 0 35 -3 9 -5 1 -5 -18z"/>
<path d="M2202 11924 c0 -41 4 -74 8 -74 10 0 20 37 12 45 -9 8 -2 78 8 90 6
7 2 11 -10 12 -16 1 -18 -6 -18 -73z"/>
<path d="M3150 11990 c-12 -8 -10 -10 8 -10 13 0 20 4 17 10 -7 12 -6 12 -25
0z"/>
<path d="M3190 11988 c0 -5 6 -8 13 -8 6 0 127 -2 268 -4 141 -2 262 0 270 5
8 5 -101 9 -269 11 -155 2 -282 0 -282 -4z"/>
<path d="M2278 11983 c7 -3 16 -2 19 1 4 3 -2 6 -13 5 -11 0 -14 -3 -6 -6z"/>
<path d="M2336 11982 c-3 -5 50 -9 117 -9 67 0 167 -1 222 -2 116 -2 275 6
283 14 3 3 -135 5 -306 5 -171 0 -313 -4 -316 -8z"/>
<path d="M2983 11983 c8 -7 119 -5 126 3 2 2 -26 4 -64 4 -38 0 -65 -3 -62 -7z"/>
<path d="M2200 11800 c0 -5 5 -10 10 -10 6 0 10 5 10 10 0 6 -4 10 -10 10 -5
0 -10 -4 -10 -10z"/>
<path d="M2426 11711 c-18 -7 -18 -8 -2 -14 29 -11 46 -8 46 8 0 16 -14 18
-44 6z"/>
<path d="M3258 11643 c7 -3 16 -2 19 1 4 3 -2 6 -13 5 -11 0 -14 -3 -6 -6z"/>
<path d="M3349 11638 c7 -10 23 -17 35 -17 20 1 20 2 1 6 -11 3 -27 10 -35 17
-13 10 -13 9 -1 -6z"/>
<path d="M2284 11615 c8 -8 16 -15 19 -15 2 0 4 7 4 15 0 8 -9 15 -19 15 -17
0 -18 -2 -4 -15z"/>
<path d="M3618 11623 c7 -3 16 -2 19 1 4 3 -2 6 -13 5 -11 0 -14 -3 -6 -6z"/>
<path d="M3560 11610 c0 -5 7 -10 15 -10 8 0 15 5 15 10 0 6 -7 10 -15 10 -8
0 -15 -4 -15 -10z"/>
<path d="M3648 11603 c7 -3 16 -2 19 1 4 3 -2 6 -13 5 -11 0 -14 -3 -6 -6z"/>
<path d="M3484 10167 c-21 -12 -17 -27 7 -27 11 0 18 3 16 8 -3 4 15 5 39 3
25 -2 44 1 44 7 0 13 -86 20 -106 9z"/>
<path d="M3623 10153 c9 -2 23 -2 30 0 6 3 -1 5 -18 5 -16 0 -22 -2 -12 -5z"/>
<path d="M3694 10141 c4 -5 0 -12 -6 -14 -7 -3 -1 -6 15 -6 18 -1 27 4 27 14
0 8 -9 15 -21 15 -11 0 -18 -4 -15 -9z"/>
<path d="M3035 10130 c3 -5 13 -10 21 -10 8 0 12 5 9 10 -3 6 -13 10 -21 10
-8 0 -12 -4 -9 -10z"/>
<path d="M3528 10123 c12 -2 30 -2 40 0 9 3 -1 5 -23 4 -22 0 -30 -2 -17 -4z"/>
<path d="M3618 10123 c12 -2 30 -2 40 0 9 3 -1 5 -23 4 -22 0 -30 -2 -17 -4z"/>
<path d="M3758 10123 c7 -3 16 -2 19 1 4 3 -2 6 -13 5 -11 0 -14 -3 -6 -6z"/>
<path d="M4902 10268 c7 -20 48 -23 48 -4 0 11 -9 16 -26 16 -16 0 -24 -5 -22
-12z"/>
<path d="M13750 10170 c0 -5 9 -10 20 -10 11 0 20 5 20 10 0 6 -9 10 -20 10
-11 0 -20 -4 -20 -10z"/>
<path d="M13605 10130 c18 -8 155 -3 164 6 2 2 -38 4 -90 3 -62 0 -87 -3 -74
-9z"/>
<path d="M13908 10133 c7 -3 16 -2 19 1 4 3 -2 6 -13 5 -11 0 -14 -3 -6 -6z"/>
<path d="M9443 11325 c-17 -7 -34 -23 -38 -34 -3 -11 -25 -36 -47 -56 -23 -19
-39 -38 -36 -41 4 -3 32 0 63 6 31 7 72 9 90 6 19 -4 36 -3 38 2 3 4 3 36 0
70 -6 68 -12 72 -70 47z"/>
<path d="M9618 11215 l5 -115 -32 -11 c-31 -11 -31 -12 -16 -35 19 -30 12 -44
-21 -44 -14 0 -47 -11 -74 -25 -42 -21 -50 -30 -56 -62 -9 -51 -12 -55 -35
-42 -28 15 -47 65 -47 122 0 64 -35 121 -69 113 -18 -5 -29 0 -48 21 -33 38
-31 49 13 72 20 11 55 36 77 55 30 26 37 37 28 46 -13 14 -154 -33 -243 -82
-112 -62 -293 -206 -324 -259 -16 -27 -16 -29 0 -29 9 0 31 8 48 19 17 10 57
22 89 26 l58 7 -15 23 c-21 32 -21 91 0 99 55 21 100 -6 75 -46 -18 -28 -5
-38 42 -32 23 3 61 1 85 -5 42 -12 42 -12 42 -59 0 -27 -5 -53 -11 -59 -8 -8
-1 -22 26 -52 20 -22 45 -43 55 -46 22 -7 47 -62 33 -76 -6 -6 -28 -3 -61 6
-56 17 -73 13 -106 -24 -17 -19 -17 -21 -2 -27 35 -13 6 -49 -67 -81 -15 -7
-30 -20 -34 -30 -3 -10 -23 -36 -43 -58 -44 -47 -60 -104 -35 -129 9 -9 21
-16 26 -16 5 0 9 -7 9 -15 0 -17 -27 -19 -64 -6 -23 9 -24 12 -13 40 17 47 -4
65 -71 58 -29 -3 -65 -13 -79 -22 -22 -15 -24 -22 -18 -53 12 -69 15 -74 43
-69 16 3 41 -3 64 -16 32 -18 38 -27 38 -54 0 -41 14 -42 50 -3 31 33 45 35
134 16 41 -8 64 -19 74 -34 8 -12 20 -22 28 -22 7 0 22 -13 34 -30 12 -16 29
-30 38 -30 23 0 120 -36 138 -51 19 -16 18 -22 -10 -63 -15 -22 -26 -57 -30
-96 -7 -59 -8 -61 -46 -76 -36 -14 -40 -20 -50 -69 -6 -29 -20 -61 -32 -71
-50 -46 -63 -76 -63 -152 l-1 -72 76 -29 c185 -72 438 -78 625 -16 188 62 379
195 477 331 121 169 193 356 199 519 l4 89 -55 13 c-73 17 -114 13 -118 -11
-3 -11 5 -26 17 -35 l21 -16 -29 -33 c-34 -36 -59 -40 -89 -14 -26 22 -152
203 -152 218 0 7 9 14 20 17 26 7 25 27 0 55 -21 22 -70 31 -70 12 0 -5 -11
-10 -24 -10 -14 0 -28 5 -31 10 -3 6 -17 10 -31 10 -21 0 -24 -4 -19 -20 9
-29 -12 -25 -52 10 -18 17 -43 30 -54 30 -34 0 -83 -28 -100 -58 -10 -17 -30
-32 -55 -40 -42 -13 -50 -9 -59 29 -5 22 -2 28 24 39 26 10 30 16 24 38 -5 22
-3 24 17 19 23 -6 50 12 50 32 0 18 -50 61 -73 61 -20 1 -21 2 -5 14 12 9 14
16 7 23 -8 8 -6 20 5 42 19 36 29 38 58 11 l22 -20 -21 -29 -22 -28 25 -12
c35 -16 42 -14 76 14 32 27 85 33 117 13 29 -17 55 7 47 44 -5 26 -4 27 14 16
16 -10 23 -10 37 5 22 21 12 30 -50 47 -52 14 -59 12 -62 -22 -1 -13 -3 -29
-4 -35 -1 -16 -31 -16 -51 0 -23 18 -50 64 -50 85 0 10 18 35 40 56 22 20 40
42 40 48 0 6 11 8 28 5 90 -19 93 -19 113 -1 11 10 17 24 14 32 -8 22 14 42
45 42 31 0 55 22 47 43 -3 8 -27 22 -54 32 -26 9 -58 28 -71 41 -63 65 -312
152 -312 109 0 -8 3 -15 8 -15 4 0 33 -25 65 -55 65 -63 75 -99 32 -115 -43
-16 -64 5 -65 67 0 12 -13 31 -31 45 -17 13 -47 38 -66 56 -56 52 -60 47 -55
-83z m-553 -75 c3 -5 1 -10 -4 -10 -6 0 -11 5 -11 10 0 6 2 10 4 10 3 0 8 -4
11 -10z m71 -35 c19 -15 19 -15 -3 -34 -29 -25 -63 -17 -63 14 0 21 8 27 41
34 3 0 14 -6 25 -14z m74 -30 c0 -8 -4 -15 -9 -15 -13 0 -22 16 -14 24 11 11
23 6 23 -9z m-326 -60 c-6 -16 -24 -21 -24 -7 0 11 11 22 21 22 5 0 6 -7 3
-15z m986 -205 c0 -5 -4 -10 -10 -10 -5 0 -10 5 -10 10 0 6 5 10 10 10 6 0 10
-4 10 -10z m-25 -300 c14 0 40 -14 59 -31 31 -27 38 -29 54 -17 14 9 41 12 93
8 l74 -5 10 -42 c15 -60 101 -189 136 -204 16 -6 29 -15 29 -20 0 -4 -28 -38
-61 -74 l-62 -65 6 -56 c5 -51 3 -60 -29 -109 -18 -30 -39 -57 -45 -60 -6 -4
-8 -14 -5 -22 3 -8 0 -26 -8 -41 -21 -41 -114 -124 -134 -120 -9 2 -24 24 -34
53 -10 28 -30 75 -44 106 -23 50 -25 61 -15 89 14 42 14 103 0 117 -7 7 -15
40 -18 75 l-6 63 -50 -1 c-27 0 -69 -4 -93 -8 -41 -8 -44 -7 -81 32 -51 53
-72 97 -64 131 3 14 28 56 55 93 38 50 60 71 96 86 57 24 83 31 100 26 8 -2
24 -4 37 -4z m452 -568 c-8 -40 -45 -135 -61 -157 -13 -18 -14 -17 -31 9 -15
23 -16 32 -6 67 23 75 112 149 98 81z"/>
<path d="M8980 11050 c0 -5 5 -10 11 -10 5 0 7 5 4 10 -3 6 -8 10 -11 10 -2 0
-4 -4 -4 -10z"/>
<path d="M9037 10982 c-15 -10 -30 -25 -33 -34 -3 -9 -13 -20 -23 -23 -53 -17
-64 -79 -16 -91 13 -3 27 -15 30 -25 9 -28 32 -23 68 12 26 26 29 34 19 50 -7
10 -12 21 -12 24 0 10 56 31 74 27 14 -3 17 0 12 13 -3 9 -6 19 -6 21 0 2 -6
4 -13 4 -7 0 -20 9 -30 20 -20 24 -32 24 -70 2z"/>
<path d="M10275 10980 c4 -11 2 -20 -4 -20 -6 0 -11 -4 -11 -10 0 -5 11 -10
24 -10 60 0 206 -270 206 -381 0 -39 15 -54 22 -21 10 45 -37 207 -83 287 -44
78 -123 175 -142 175 -14 0 -17 -5 -12 -20z"/>
<path d="M8656 10781 c-39 -43 -75 -166 -87 -297 -12 -141 -8 -208 22 -328 39
-161 116 -307 219 -418 71 -78 222 -208 241 -208 7 0 9 11 5 35 -12 64 -26
200 -26 258 0 61 1 59 -77 129 -59 52 -65 67 -53 129 12 60 0 88 -48 113 -15
8 -36 23 -46 35 -11 12 -30 21 -43 21 -37 0 -55 13 -123 90 -49 55 -60 74 -50
80 10 6 14 35 15 107 1 91 3 104 39 181 39 86 42 106 12 73z"/>
<path d="M10280 10520 c0 -6 15 -27 34 -47 31 -34 37 -37 62 -28 31 11 44 35
19 35 -10 0 -30 11 -47 25 -30 25 -68 34 -68 15z"/>
<path d="M12490 10175 c-1 -5 -3 -18 -5 -28 -3 -15 -1 -16 13 -5 13 11 15 10
10 -9 -4 -16 -2 -23 9 -23 9 0 13 6 10 14 -3 7 0 19 6 26 9 10 9 11 -1 5 -8
-4 -19 0 -27 11 -8 11 -15 15 -15 9z"/>
<path d="M12563 10130 c1 -11 7 -20 14 -20 15 0 15 2 7 24 -9 23 -23 20 -21
-4z"/>
<path d="M12447 10119 c7 -7 15 -10 18 -7 3 3 -2 9 -12 12 -14 6 -15 5 -6 -5z"/>
<path d="M6381 10392 c-8 -15 -7 -23 3 -31 7 -6 11 -22 8 -36 -2 -15 0 -25 7
-25 7 0 10 4 6 9 -3 5 6 18 20 29 13 11 21 22 18 26 -10 10 -25 7 -18 -4 3 -5
1 -10 -5 -10 -7 0 -9 8 -5 19 3 10 -1 23 -9 30 -12 10 -17 8 -25 -7z"/>
<path d="M10800 9340 c-8 -5 -12 -12 -9 -15 4 -3 12 1 19 10 14 17 11 19 -10
5z"/>
<path d="M8355 8820 c-5 -7 3 -21 19 -35 14 -12 26 -27 26 -33 0 -6 5 -14 12
-18 7 -4 8 -3 4 4 -4 7 -2 12 3 12 18 0 12 18 -7 24 -9 3 -24 18 -33 32 -12
19 -19 23 -24 14z"/>
<path d="M9033 8438 c3 -9 2 -18 -2 -20 -4 -2 -25 -28 -47 -58 -21 -30 -29
-47 -18 -37 28 23 41 22 19 -3 -10 -11 -13 -20 -7 -20 7 0 12 -7 12 -16 0 -12
-7 -15 -24 -12 -19 4 -23 1 -23 -19 0 -12 2 -23 6 -23 3 0 24 -16 46 -36 22
-20 51 -44 65 -53 14 -9 59 -41 100 -72 41 -31 127 -91 189 -133 63 -43 120
-85 126 -93 19 -26 23 -4 26 139 l2 137 -129 87 c-107 72 -270 189 -333 238
-12 9 -13 8 -8 -6z m28 -45 c12 -14 12 -16 0 -8 -9 5 -18 2 -27 -9 -6 -9 -15
-13 -18 -8 -3 6 1 13 10 16 8 3 12 10 9 16 -10 17 12 11 26 -7z m84 -73 c3 -5
1 -10 -4 -10 -6 0 -11 5 -11 10 0 6 2 10 4 10 3 0 8 -4 11 -10z"/>
<path d="M9905 8374 l-40 -36 45 33 c25 18 47 34 49 36 2 2 0 3 -5 3 -5 0 -27
-16 -49 -36z"/>
<path d="M9795 8295 c-16 -14 -25 -25 -19 -25 6 0 21 11 34 25 30 32 24 31
-15 0z"/>
<path d="M8921 8281 c-8 -14 -7 -20 2 -24 7 -3 12 5 12 19 0 29 -1 29 -14 5z"/>
<path d="M9689 8219 l-24 -20 28 17 c15 9 27 18 27 20 0 8 -8 4 -31 -17z"/>
<path d="M9563 8134 l-28 -25 33 22 c17 13 32 24 32 26 0 8 -11 1 -37 -23z"/>
<path d="M7207 7873 c-11 -10 -8 -101 3 -108 6 -4 10 17 10 54 0 62 -1 66 -13
54z"/>
<path d="M8172 6390 c0 -14 2 -19 5 -12 2 6 2 18 0 25 -3 6 -5 1 -5 -13z"/>
<path d="M8172 6073 c0 -165 4 -293 9 -293 11 0 10 478 -1 540 -5 27 -8 -69
-8 -247z"/>
<path d="M9097 6553 c-13 -3 -16 -10 -11 -21 5 -10 9 -95 11 -191 l3 -174 122
2 c68 1 150 7 183 12 34 6 67 9 75 7 11 -2 13 14 9 87 -6 123 -4 214 4 253 l7
32 -193 -1 c-105 -1 -200 -3 -210 -6z"/>
<path d="M11904 6280 c0 -69 1 -97 3 -62 2 34 2 90 0 125 -2 34 -3 6 -3 -63z"/>
<path d="M14585 7110 c-3 -6 1 -7 9 -4 18 7 21 14 7 14 -6 0 -13 -4 -16 -10z"/>
<path d="M13636 7004 c-8 -21 -8 -24 5 -24 5 0 8 4 5 9 -4 5 -1 11 6 13 8 3 9
6 1 11 -6 4 -14 0 -17 -9z"/>
<path d="M13559 6823 c-13 -16 -12 -17 4 -4 9 7 17 15 17 17 0 8 -8 3 -21 -13z"/>
<path d="M13530 6790 c0 -5 5 -10 10 -10 6 0 10 5 10 10 0 6 -4 10 -10 10 -5
0 -10 -4 -10 -10z"/>
<path d="M15017 5915 c-4 -8 -3 -16 1 -19 4 -3 9 4 9 15 2 23 -3 25 -10 4z"/>
<path d="M15185 5750 c-3 -5 1 -10 10 -10 9 0 13 5 10 10 -3 6 -8 10 -10 10
-2 0 -7 -4 -10 -10z"/>
<path d="M15130 5730 c-9 -6 -10 -10 -3 -10 6 0 15 5 18 10 8 12 4 12 -15 0z"/>
<path d="M15173 5710 c-1 -11 2 -22 8 -25 5 -4 9 1 9 9 0 9 5 16 10 16 6 0 10
5 10 10 0 20 -36 10 -37 -10z"/>
<path d="M14903 5673 c9 -9 19 -14 23 -11 10 10 -6 28 -24 28 -15 0 -15 -1 1
-17z"/>
<path d="M15157 5669 c7 -7 15 -10 18 -7 3 3 -2 9 -12 12 -14 6 -15 5 -6 -5z"/>
<path d="M14890 5619 c0 -5 5 -7 10 -4 6 3 10 8 10 11 0 2 -4 4 -10 4 -5 0
-10 -5 -10 -11z"/>
<path d="M14975 5560 c-3 -5 -1 -10 4 -10 6 0 11 5 11 10 0 6 -2 10 -4 10 -3
0 -8 -4 -11 -10z"/>
<path d="M4270 5570 c0 -5 5 -10 11 -10 5 0 7 5 4 10 -3 6 -8 10 -11 10 -2 0
-4 -4 -4 -10z"/>
<path d="M4100 5451 c0 -5 5 -13 10 -16 6 -3 10 -2 10 4 0 5 -4 13 -10 16 -5
3 -10 2 -10 -4z"/>
<path d="M4722 5018 c-15 -15 -16 -32 -2 -23 5 3 19 0 31 -8 15 -11 17 -16 7
-20 -7 -2 -10 -8 -5 -12 4 -5 13 -3 19 3 10 10 16 5 30 -20 14 -27 17 -29 15
-10 -3 23 -15 39 -59 79 -19 17 -28 19 -36 11z"/>
<path d="M4530 4984 c0 -8 5 -12 10 -9 6 4 8 11 5 16 -9 14 -15 11 -15 -7z"/>
<path d="M4585 4980 c3 -5 8 -10 11 -10 2 0 4 5 4 10 0 6 -5 10 -11 10 -5 0
-7 -4 -4 -10z"/>
<path d="M4640 4980 c0 -5 7 -10 15 -10 8 0 15 5 15 10 0 6 -7 10 -15 10 -8 0
-15 -4 -15 -10z"/>
<path d="M4700 4970 c0 -3 4 -10 8 -17 6 -9 11 -7 20 7 10 16 9 18 -8 17 -11
-1 -20 -4 -20 -7z"/>
<path d="M4545 4960 c-3 -5 -1 -10 4 -10 6 0 11 5 11 10 0 6 -2 10 -4 10 -3 0
-8 -4 -11 -10z"/>
<path d="M4745 4930 c4 -6 11 -8 16 -5 14 9 11 15 -7 15 -8 0 -12 -5 -9 -10z"/>
<path d="M4772 4918 c-7 -9 -6 -17 3 -25 9 -8 16 -9 20 -3 3 6 1 10 -5 10 -7
0 -10 7 -6 15 7 18 2 19 -12 3z"/>
<path d="M4810 4660 c0 -5 5 -10 11 -10 5 0 7 5 4 10 -3 6 -8 10 -11 10 -2 0
-4 -4 -4 -10z"/>
<path d="M5416 4447 c3 -10 9 -15 12 -12 3 3 0 11 -7 18 -10 9 -11 8 -5 -6z"/>
<path d="M5383 4425 c-15 -16 3 -39 37 -50 17 -5 18 -10 9 -27 -12 -22 -6 -34
11 -23 6 4 9 14 5 22 -4 13 -3 13 9 4 11 -9 15 -8 20 5 8 22 -4 40 -15 23 -8
-12 -11 -11 -19 1 -5 8 -10 12 -10 8 0 -4 -9 0 -20 9 -14 13 -17 20 -8 30 14
18 -4 16 -19 -2z"/>
<path d="M5440 4415 c0 -8 5 -15 10 -15 6 0 10 7 10 15 0 8 -4 15 -10 15 -5 0
-10 -7 -10 -15z"/>
<path d="M5176 4195 c-9 -13 -16 -29 -16 -34 0 -5 -7 -11 -15 -13 -10 -2 -6
-7 11 -15 23 -11 25 -10 19 5 -5 13 -3 14 6 5 6 -6 13 -22 14 -35 4 -38 5 -39
17 -32 8 5 9 2 4 -11 -6 -15 -4 -16 9 -5 15 12 14 15 -6 25 -13 7 -17 15 -11
19 6 3 13 0 15 -6 4 -10 8 -9 16 2 6 8 16 15 23 15 7 0 14 9 16 20 4 19 3 19
-20 -3 -15 -14 -31 -20 -41 -16 -18 7 -24 44 -7 44 6 0 10 -7 10 -15 0 -22 27
-18 33 5 8 31 7 35 -9 32 -8 -2 -14 4 -14 11 0 8 -7 18 -16 21 -21 8 -20 9
-38 -19z"/>
<path d="M5141 4113 c1 -10 5 -29 9 -43 6 -20 8 -17 6 17 0 24 -4 43 -8 43 -5
0 -8 -8 -7 -17z"/>
<path d="M5074 4081 c0 -11 4 -17 8 -15 4 3 8 12 8 20 0 8 -4 14 -8 14 -4 0
-8 -9 -8 -19z"/>
<path d="M5096 4063 c-6 -14 -5 -15 5 -6 7 7 10 15 7 18 -3 3 -9 -2 -12 -12z"/>
<path d="M5092 4014 c-7 -8 -8 -14 -3 -14 10 0 25 19 20 25 -2 1 -10 -3 -17
-11z"/>
<path d="M5185 4011 c-4 -7 -5 -13 -4 -14 2 -2 11 -8 20 -15 14 -10 18 -10 23
3 3 9 2 13 -3 10 -6 -3 -14 2 -19 11 -7 12 -11 13 -17 5z"/>
<path d="M13930 4440 c6 -11 15 -20 20 -20 6 0 2 9 -7 20 -10 11 -19 20 -21
20 -1 0 2 -9 8 -20z"/>
<path d="M13980 4390 c0 -5 5 -10 11 -10 5 0 7 5 4 10 -3 6 -8 10 -11 10 -2 0
-4 -4 -4 -10z"/>
<path d="M13090 3930 c-8 -11 -20 -18 -27 -15 -7 2 -13 -2 -13 -10 0 -8 6 -15
13 -15 9 0 8 -3 -2 -9 -9 -6 -10 -11 -2 -15 6 -4 13 4 17 19 4 18 13 25 30 25
13 0 24 5 24 11 0 5 -4 7 -10 4 -6 -3 -7 1 -4 9 9 23 -9 20 -26 -4z"/>
<path d="M13137 3896 c-6 -15 19 -30 34 -20 6 3 5 11 -2 20 -15 18 -25 18 -32
0z"/>
<path d="M12960 3880 c0 -5 5 -10 11 -10 5 0 7 5 4 10 -3 6 -8 10 -11 10 -2 0
-4 -4 -4 -10z"/>
<path d="M12998 3883 c7 -3 16 -2 19 1 4 3 -2 6 -13 5 -11 0 -14 -3 -6 -6z"/>
<path d="M13031 3874 c0 -11 3 -14 6 -6 3 7 2 16 -1 19 -3 4 -6 -2 -5 -13z"/>
<path d="M12795 3791 c0 -19 4 -27 13 -24 8 3 10 13 6 25 -4 14 -2 18 5 14 6
-4 11 -2 11 3 0 6 -8 11 -17 11 -13 0 -18 -8 -18 -29z"/>
<path d="M12745 3790 c-3 -5 -1 -10 4 -10 6 0 11 5 11 10 0 6 -2 10 -4 10 -3
0 -8 -4 -11 -10z"/>
<path d="M12760 3759 c0 -5 5 -7 10 -4 6 3 10 8 10 11 0 2 -4 4 -10 4 -5 0
-10 -5 -10 -11z"/>
<path d="M5970 3549 c0 -5 5 -7 10 -4 6 3 10 8 10 11 0 2 -4 4 -10 4 -5 0 -10
-5 -10 -11z"/>
<path d="M6280 3345 c0 -8 5 -15 10 -15 6 0 10 7 10 15 0 8 -4 15 -10 15 -5 0
-10 -7 -10 -15z"/>
<path d="M6930 3211 c0 -6 4 -13 10 -16 6 -3 7 1 4 9 -7 18 -14 21 -14 7z"/>
<path d="M6960 3189 c0 -5 5 -7 10 -4 6 3 10 8 10 11 0 2 -4 4 -10 4 -5 0 -10
-5 -10 -11z"/>
<path d="M6916 3167 c3 -10 9 -15 12 -12 3 3 0 11 -7 18 -10 9 -11 8 -5 -6z"/>
<path d="M6775 2919 c-4 -6 -5 -12 -2 -15 2 -3 7 2 10 11 7 17 1 20 -8 4z"/>
<path d="M6768 2883 c7 -3 16 -2 19 1 4 3 -2 6 -13 5 -11 0 -14 -3 -6 -6z"/>
<path d="M11550 3021 c0 -10 19 -25 25 -20 1 2 -3 10 -11 17 -8 7 -14 8 -14 3z"/>
<path d="M11586 2723 c-11 -11 -6 -23 9 -23 8 0 15 4 15 9 0 13 -16 22 -24 14z"/>
<path d="M10828 3057 c-3 -19 -2 -25 4 -19 6 6 8 18 6 28 -3 14 -5 12 -10 -9z"/>
<path d="M10801 3054 c0 -11 3 -14 6 -6 3 7 2 16 -1 19 -3 4 -6 -2 -5 -13z"/>
<path d="M9380 2865 c0 -14 4 -25 9 -25 4 0 6 11 3 25 -2 14 -6 25 -8 25 -2 0
-4 -11 -4 -25z"/>
<path d="M9380 2784 c0 -8 5 -12 10 -9 6 4 8 11 5 16 -9 14 -15 11 -15 -7z"/>
<path d="M10322 2550 c0 -14 2 -19 5 -12 2 6 2 18 0 25 -3 6 -5 1 -5 -13z"/>
<path d="M9530 2600 c0 -5 5 -10 10 -10 6 0 10 5 10 10 0 6 -4 10 -10 10 -5 0
-10 -4 -10 -10z"/>
<path d="M9540 2536 c0 -2 7 -7 16 -10 8 -3 12 -2 9 4 -6 10 -25 14 -25 6z"/>
<path d="M9505 2510 c3 -5 8 -10 11 -10 2 0 4 5 4 10 0 6 -5 10 -11 10 -5 0
-7 -4 -4 -10z"/>
<path d="M10950 2480 c0 -5 4 -10 9 -10 6 0 13 5 16 10 3 6 -1 10 -9 10 -9 0
-16 -4 -16 -10z"/>
<path d="M10946 2447 c3 -10 9 -15 12 -12 3 3 0 11 -7 18 -10 9 -11 8 -5 -6z"/>
<path d="M11005 2440 c3 -5 8 -10 11 -10 2 0 4 5 4 10 0 6 -5 10 -11 10 -5 0
-7 -4 -4 -10z"/>
<path d="M10986 2425 c4 -8 11 -15 16 -15 6 0 5 6 -2 15 -7 8 -14 15 -16 15
-2 0 -1 -7 2 -15z"/>
<path d="M11040 2430 c0 -5 5 -10 10 -10 6 0 10 5 10 10 0 6 -4 10 -10 10 -5
0 -10 -4 -10 -10z"/>
</g>
</svg>
